<svg xmlns="http://www.w3.org/2000/svg" version="1.1" xmlns:xlink="http://www.w3.org/1999/xlink" xmlns:svgjs="http://svgjs.dev/svgjs" width="1500" height="1500" viewBox="0 0 1500 1500"><rect width="1500" height="1500" fill="#000000"></rect><g transform="matrix(0.6666666666666666,0,0,0.6666666666666666,250.10666666666668,430.6133993333334)"><svg viewBox="0 0 375 240" data-background-color="#000000" preserveAspectRatio="xMidYMid meet" height="960" width="1500" xmlns="http://www.w3.org/2000/svg" xmlns:xlink="http://www.w3.org/1999/xlink"><g id="tight-bounds" transform="matrix(1,0,0,1,-0.03976000000000113,-0.22963475000004507)"><svg viewBox="0 0 375.07953 240.45965950000001" height="240.45965950000001" width="375.07953"><g><svg></svg></g><g><svg viewBox="0 0 375.07953 240.45965950000001" height="240.45965950000001" width="375.07953"><g transform="matrix(1,0,0,1,-10.22024,-6.740389999999991)"><path d="M10.22 240.46v-233.72h375.08v233.72h-12.488l0-5.615h6.873v-222.49h-363.85v222.49h22.394l0 5.615z" fill="#ffffff" fill-rule="nonzero" stroke="none" stroke-width="1" stroke-linecap="butt" stroke-linejoin="miter" stroke-miterlimit="10" stroke-dasharray="" stroke-dashoffset="0" font-family="none" font-weight="none" font-size="none" text-anchor="none" style="mix-blend-mode: normal" data-fill-palette-color="tertiary"></path><g><path transform="translate(54.5108,242.1014) scale(0.38773,0.38773)" d="M10.8-17.1v0c0 3.6 0.033 6.383 0.1 8.35 0.067 1.967 0.133 3.34 0.2 4.12 0.067 0.787 0.1 1.18 0.1 1.18v0c0.067 0.633 0.417 1.073 1.05 1.32 0.633 0.253 1.7 0.53 3.2 0.83v0l-0.15 1.45c-1.033-0.067-2.083-0.107-3.15-0.12-1.067-0.02-2.233-0.03-3.5-0.03v0c-2.6 0-4.95 0.05-7.05 0.15v0l-0.15-1.45c1.5-0.3 2.6-0.577 3.3-0.83 0.7-0.247 1.083-0.687 1.15-1.32v0c0 0 0.033-0.393 0.1-1.18 0.067-0.78 0.133-2.163 0.2-4.15 0.067-1.98 0.1-4.753 0.1-8.32v0c0-3.6-0.033-6.393-0.1-8.38-0.067-1.98-0.133-3.363-0.2-4.15-0.067-0.78-0.1-1.17-0.1-1.17v0c-0.067-0.633-0.39-1.077-0.97-1.33-0.587-0.247-1.63-0.52-3.13-0.82v0l0.15-1.45c1.067 0.033 2.143 0.067 3.23 0.1 1.08 0.033 2.237 0.05 3.47 0.05v0c1.267 0 2.41-0.017 3.43-0.05 1.013-0.033 2.037-0.067 3.07-0.1v0l0.15 1.45c-1.5 0.3-2.54 0.573-3.12 0.82-0.587 0.253-0.913 0.697-0.98 1.33v0c0 0-0.033 0.39-0.1 1.17-0.067 0.787-0.133 2.17-0.2 4.15-0.067 1.987-0.1 4.78-0.1 8.38zM24.85-22.95v0l0.95 0.45v2.4c0.7-0.4 1.583-0.827 2.65-1.28 1.067-0.447 2.217-0.83 3.45-1.15 1.233-0.313 2.417-0.47 3.55-0.47v0c1.433 0 2.643 0.34 3.63 1.02 0.98 0.687 1.47 1.93 1.47 3.73v0 6.8c0 2.433 0.043 4.3 0.13 5.6 0.08 1.3 0.163 2.2 0.25 2.7 0.08 0.5 0.12 0.75 0.12 0.75v0c0.033 0.167 0.243 0.333 0.63 0.5 0.38 0.167 0.82 0.3 1.32 0.4 0.5 0.1 0.917 0.167 1.25 0.2v0l-0.15 1.45c-0.8-0.067-1.683-0.107-2.65-0.12-0.967-0.02-1.883-0.03-2.75-0.03v0c-0.833 0-1.773 0.01-2.82 0.03-1.053 0.013-1.98 0.053-2.78 0.12v0l0.15-1.45c0.367-0.033 0.783-0.1 1.25-0.2 0.467-0.1 0.893-0.233 1.28-0.4 0.38-0.167 0.587-0.333 0.62-0.5v0c0 0 0.033-0.25 0.1-0.75 0.067-0.5 0.133-1.4 0.2-2.7 0.067-1.3 0.1-3.167 0.1-5.6v0-5.25c0-1.233-0.357-2.077-1.07-2.53-0.72-0.447-1.613-0.67-2.68-0.67v0c-0.833 0-1.707 0.107-2.62 0.32-0.92 0.22-1.797 0.463-2.63 0.73-0.833 0.267-1.517 0.517-2.05 0.75v0c0 0.833-0.007 1.783-0.02 2.85-0.02 1.067-0.03 2.333-0.03 3.8v0c0 2.433 0.043 4.3 0.13 5.6 0.08 1.3 0.163 2.2 0.25 2.7 0.08 0.5 0.12 0.75 0.12 0.75v0c0.033 0.167 0.243 0.333 0.63 0.5 0.38 0.167 0.82 0.3 1.32 0.4 0.5 0.1 0.917 0.167 1.25 0.2v0l-0.15 1.45c-0.8-0.067-1.683-0.107-2.65-0.12-0.967-0.02-1.883-0.03-2.75-0.03v0c-0.833 0-1.773 0.01-2.82 0.03-1.053 0.013-1.98 0.053-2.78 0.12v0l0.15-1.45c0.367-0.033 0.783-0.1 1.25-0.2 0.467-0.1 0.893-0.233 1.28-0.4 0.38-0.167 0.587-0.333 0.62-0.5v0c0 0 0.033-0.25 0.1-0.75 0.067-0.5 0.133-1.4 0.2-2.7 0.067-1.3 0.1-3.167 0.1-5.6v0c0-2.433-0.033-4.243-0.1-5.43-0.067-1.18-0.133-1.963-0.2-2.35-0.067-0.38-0.1-0.57-0.1-0.57v0l-3.2-0.95-0.1-1.3c0.6 0 1.31-0.043 2.13-0.13 0.813-0.08 1.62-0.197 2.42-0.35 0.8-0.147 1.483-0.287 2.05-0.42zM60.65-3.55v0l0.6 1.65c-1.133 0.733-2.217 1.307-3.25 1.72-1.033 0.42-2.083 0.63-3.15 0.63v0c-1.433 0-2.657-0.35-3.67-1.05-1.02-0.7-1.53-2.017-1.53-3.95v0c0 0 0.01-0.41 0.03-1.23 0.013-0.813 0.02-1.813 0.02-3 0-1.18 0-2.303 0-3.37v0c0-1.667-0.007-3.193-0.02-4.58-0.02-1.38-0.047-2.57-0.08-3.57v0c-1 0.033-1.783 0.05-2.35 0.05-0.567 0-0.85 0-0.85 0v0l-0.15-0.55 1.15-1.95c0 0 0.177 0.023 0.53 0.07 0.347 0.053 0.87 0.097 1.57 0.13v0c0-0.667-0.017-1.36-0.05-2.08-0.033-0.713-0.067-1.313-0.1-1.8-0.033-0.48-0.05-0.72-0.05-0.72v0l3.3-2.95 0.95 0.45c0 0-0.007 0.357-0.02 1.07-0.02 0.72-0.037 1.613-0.05 2.68-0.02 1.067-0.03 2.167-0.03 3.3v0c2.267 0 4.06-0.01 5.38-0.03 1.313-0.013 1.97-0.02 1.97-0.02v0l0.25 0.6-1.8 2c0 0-0.45-0.033-1.35-0.1-0.9-0.067-2.383-0.117-4.45-0.15v0 6.7c0 2 0.01 3.65 0.03 4.95 0.013 1.3 0.053 2.633 0.12 4v0c0.067 0.833 0.35 1.417 0.85 1.75 0.5 0.333 1.1 0.5 1.8 0.5v0c0.767 0 1.56-0.133 2.38-0.4 0.813-0.267 1.487-0.517 2.02-0.75zM81.6-4.15v0l0.6 1.5c-1.033 0.833-2.24 1.557-3.62 2.17-1.387 0.62-2.913 0.93-4.58 0.93v0c-2.467 0-4.493-0.493-6.08-1.48-1.58-0.98-2.747-2.287-3.5-3.92-0.747-1.633-1.12-3.433-1.12-5.4v0c0-1.6 0.227-3.15 0.68-4.65 0.447-1.5 1.137-2.85 2.07-4.05 0.933-1.2 2.167-2.16 3.7-2.88 1.533-0.713 3.367-1.07 5.5-1.07v0c1.2 0 2.383 0.283 3.55 0.85 1.167 0.567 2.133 1.473 2.9 2.72 0.767 1.253 1.15 2.913 1.15 4.98v0l-1.7 2.05c-0.133-0.033-0.357-0.05-0.67-0.05-0.32 0-0.713 0-1.18 0v0c-0.833 0-1.817 0.007-2.95 0.02-1.133 0.02-2.283 0.047-3.45 0.08-1.167 0.033-2.233 0.073-3.2 0.12-0.967 0.053-1.683 0.097-2.15 0.13v0 0.45c0 3.133 0.66 5.433 1.98 6.9 1.313 1.467 3.02 2.2 5.12 2.2v0c1.233 0 2.4-0.133 3.5-0.4 1.1-0.267 2.25-0.667 3.45-1.2zM78.35-16v0c0-1.133-0.223-2.027-0.67-2.68-0.453-0.647-1.003-1.12-1.65-1.42-0.653-0.3-1.28-0.45-1.88-0.45v0c-1.633 0-3 0.64-4.1 1.92-1.1 1.287-1.833 2.78-2.2 4.48v0l10.35-0.4c0.1-0.5 0.15-0.983 0.15-1.45zM93.05-17.6v0c0 3 0.027 5.45 0.08 7.35 0.047 1.9 0.103 3.4 0.17 4.5 0.067 1.1 0.127 1.89 0.18 2.37 0.047 0.487 0.087 0.813 0.12 0.98v0c0.033 0.167 0.267 0.333 0.7 0.5 0.433 0.167 0.927 0.3 1.48 0.4 0.547 0.1 0.987 0.167 1.32 0.2v0l-0.15 1.45c-0.8-0.067-1.733-0.107-2.8-0.12-1.067-0.02-2.033-0.03-2.9-0.03v0c-0.833 0-1.823 0.01-2.97 0.03-1.153 0.013-2.13 0.053-2.93 0.12v0l0.15-1.45c0.367-0.033 0.81-0.1 1.33-0.2 0.513-0.1 0.987-0.233 1.42-0.4 0.433-0.167 0.667-0.333 0.7-0.5v0c0 0 0.017-0.243 0.05-0.73 0.033-0.48 0.077-1.313 0.13-2.5 0.047-1.18 0.087-2.813 0.12-4.9 0.033-2.08 0.05-4.737 0.05-7.97v0c0-3.2-0.017-5.783-0.05-7.75-0.033-1.967-0.083-3.467-0.15-4.5-0.067-1.033-0.117-1.727-0.15-2.08-0.033-0.347-0.05-0.52-0.05-0.52v0l-3.2-0.95-0.1-1.3c0.6 0 1.31-0.043 2.13-0.13 0.813-0.08 1.62-0.197 2.42-0.35 0.8-0.147 1.483-0.287 2.05-0.42v0l0.95 0.45c0 0-0.017 1.55-0.05 4.65-0.033 3.1-0.05 7.7-0.05 13.8zM106.65-17.6v0c0 3 0.023 5.45 0.07 7.35 0.053 1.9 0.113 3.4 0.18 4.5 0.067 1.1 0.127 1.89 0.18 2.37 0.047 0.487 0.087 0.813 0.12 0.98v0c0.033 0.167 0.267 0.333 0.7 0.5 0.433 0.167 0.927 0.3 1.48 0.4 0.547 0.1 0.987 0.167 1.32 0.2v0l-0.15 1.45c-0.8-0.067-1.733-0.107-2.8-0.12-1.067-0.02-2.033-0.03-2.9-0.03v0c-0.833 0-1.823 0.01-2.97 0.03-1.153 0.013-2.13 0.053-2.93 0.12v0l0.15-1.45c0.367-0.033 0.807-0.1 1.32-0.2 0.52-0.1 0.997-0.233 1.43-0.4 0.433-0.167 0.667-0.333 0.7-0.5v0c0 0 0.017-0.243 0.05-0.73 0.033-0.48 0.073-1.313 0.12-2.5 0.053-1.18 0.097-2.813 0.13-4.9 0.033-2.08 0.05-4.737 0.05-7.97v0c0-3.2-0.017-5.783-0.05-7.75-0.033-1.967-0.083-3.467-0.15-4.5-0.067-1.033-0.117-1.727-0.15-2.08-0.033-0.347-0.05-0.52-0.05-0.52v0l-3.2-0.95-0.1-1.3c0.6 0 1.31-0.043 2.13-0.13 0.813-0.08 1.62-0.197 2.42-0.35 0.8-0.147 1.483-0.287 2.05-0.42v0l0.95 0.45c0 0-0.017 1.55-0.05 4.65-0.033 3.1-0.05 7.7-0.05 13.8zM119.65-22.95v0l0.95 0.45c0 0.433-0.01 1.1-0.03 2-0.013 0.9-0.02 1.89-0.02 2.97 0 1.087-0.01 2.17-0.03 3.25-0.013 1.087-0.02 2.03-0.02 2.83v0c0 2.433 0.043 4.3 0.13 5.6 0.08 1.3 0.163 2.2 0.25 2.7 0.08 0.5 0.12 0.75 0.12 0.75v0c0.033 0.167 0.273 0.333 0.72 0.5 0.453 0.167 0.953 0.3 1.5 0.4 0.553 0.1 0.997 0.167 1.33 0.2v0l-0.15 1.45c-0.8-0.067-1.743-0.107-2.83-0.12-1.08-0.02-2.053-0.03-2.92-0.03v0c-0.833 0-1.833 0.01-3 0.03-1.167 0.013-2.15 0.053-2.95 0.12v0l0.15-1.45c0.367-0.033 0.817-0.1 1.35-0.2 0.533-0.1 1.017-0.233 1.45-0.4 0.433-0.167 0.667-0.333 0.7-0.5v0c0 0 0.033-0.25 0.1-0.75 0.067-0.5 0.133-1.4 0.2-2.7 0.067-1.3 0.1-3.167 0.1-5.6v0c0-2.433-0.033-4.243-0.1-5.43-0.067-1.18-0.133-1.963-0.2-2.35-0.067-0.38-0.1-0.57-0.1-0.57v0l-3.2-0.95-0.1-1.3c0.6 0 1.307-0.043 2.12-0.13 0.82-0.08 1.63-0.197 2.43-0.35 0.8-0.147 1.483-0.287 2.05-0.42zM118.5-28.15v0c-0.733 0-1.35-0.26-1.85-0.78-0.5-0.513-0.75-1.153-0.75-1.92v0c0-0.733 0.25-1.35 0.75-1.85 0.5-0.5 1.117-0.75 1.85-0.75v0c0.733 0 1.35 0.25 1.85 0.75 0.5 0.5 0.75 1.117 0.75 1.85v0c0 0.767-0.25 1.407-0.75 1.92-0.5 0.52-1.117 0.78-1.85 0.78zM143.05-21.45v0c0.2-0.3 0.527-0.717 0.98-1.25 0.447-0.533 0.947-1.017 1.5-1.45 0.547-0.433 1.053-0.65 1.52-0.65v0c0.167 0 0.423 0.173 0.77 0.52 0.353 0.353 0.707 0.797 1.06 1.33 0.347 0.533 0.587 1.083 0.72 1.65v0l-0.75 0.95c-0.233-0.133-0.54-0.243-0.92-0.33-0.387-0.08-0.813-0.12-1.28-0.12v0c-0.333 0-0.7 0.04-1.1 0.12-0.4 0.087-0.8 0.23-1.2 0.43v0c0.567 0.667 1 1.477 1.3 2.43 0.3 0.947 0.45 2.087 0.45 3.42v0c0 1.3-0.307 2.583-0.92 3.85-0.62 1.267-1.597 2.317-2.93 3.15-1.333 0.833-3.083 1.25-5.25 1.25v0c-0.767 0-1.5-0.05-2.2-0.15v0c-0.567 0.733-1.017 1.373-1.35 1.92-0.333 0.553-0.5 1.013-0.5 1.38v0c0 0.433 0.257 0.733 0.77 0.9 0.52 0.167 1.347 0.25 2.48 0.25v0h3.75c3.2 0 5.573 0.533 7.12 1.6 1.553 1.067 2.33 2.567 2.33 4.5v0c0 1.367-0.533 2.743-1.6 4.13-1.067 1.38-2.633 2.52-4.7 3.42-2.067 0.9-4.6 1.35-7.6 1.35v0c-1.5 0-2.943-0.167-4.33-0.5-1.38-0.333-2.52-0.85-3.42-1.55-0.9-0.7-1.35-1.583-1.35-2.65v0c0-0.933 0.417-2.033 1.25-3.3 0.833-1.267 2.133-2.617 3.9-4.05v0c-1.033-0.233-1.817-0.567-2.35-1-0.533-0.433-0.8-0.917-0.8-1.45v0c0-0.667 0.44-1.467 1.32-2.4 0.887-0.933 1.947-1.9 3.18-2.9v0c-1.6-0.5-2.843-1.383-3.73-2.65-0.88-1.267-1.32-3.067-1.32-5.4v0c0-1.3 0.317-2.583 0.95-3.85 0.633-1.267 1.627-2.317 2.98-3.15 1.347-0.833 3.087-1.25 5.22-1.25v0c1.2 0 2.317 0.107 3.35 0.32 1.033 0.22 1.933 0.613 2.7 1.18zM141.8-13.9v0c0-1.1-0.117-2.183-0.35-3.25-0.233-1.067-0.693-1.96-1.38-2.68-0.68-0.713-1.687-1.07-3.02-1.07v0c-1.033 0-1.883 0.233-2.55 0.7-0.667 0.467-1.167 1.04-1.5 1.72-0.333 0.687-0.567 1.37-0.7 2.05-0.133 0.687-0.2 1.263-0.2 1.73v0c0 1 0.143 2 0.43 3 0.28 1 0.77 1.833 1.47 2.5 0.7 0.667 1.65 1 2.85 1v0c1.3 0 2.3-0.333 3-1 0.7-0.667 1.19-1.45 1.47-2.35 0.287-0.9 0.447-1.683 0.48-2.35zM130.6 6.8v0c0 1.233 0.467 2.267 1.4 3.1 0.933 0.833 2.367 1.25 4.3 1.25v0c1.8 0 3.367-0.34 4.7-1.02 1.333-0.687 2.367-1.537 3.1-2.55 0.733-1.02 1.1-1.997 1.1-2.93v0c0-0.933-0.4-1.733-1.2-2.4-0.8-0.667-2.183-1-4.15-1v0h-6.75c-0.833 0.933-1.46 1.877-1.88 2.83-0.413 0.947-0.62 1.853-0.62 2.72zM170-4.15v0l0.6 1.5c-1.033 0.833-2.243 1.557-3.63 2.17-1.38 0.62-2.903 0.93-4.57 0.93v0c-2.467 0-4.493-0.493-6.08-1.48-1.58-0.98-2.747-2.287-3.5-3.92-0.747-1.633-1.12-3.433-1.12-5.4v0c0-1.6 0.227-3.15 0.68-4.65 0.447-1.5 1.137-2.85 2.07-4.05 0.933-1.2 2.167-2.16 3.7-2.88 1.533-0.713 3.367-1.07 5.5-1.07v0c1.2 0 2.383 0.283 3.55 0.85 1.167 0.567 2.133 1.473 2.9 2.72 0.767 1.253 1.15 2.913 1.15 4.98v0l-1.7 2.05c-0.133-0.033-0.357-0.05-0.67-0.05-0.32 0-0.713 0-1.18 0v0c-0.833 0-1.817 0.007-2.95 0.02-1.133 0.02-2.283 0.047-3.45 0.08-1.167 0.033-2.233 0.073-3.2 0.12-0.967 0.053-1.683 0.097-2.15 0.13v0 0.45c0 3.133 0.657 5.433 1.97 6.9 1.32 1.467 3.03 2.2 5.13 2.2v0c1.233 0 2.4-0.133 3.5-0.4 1.1-0.267 2.25-0.667 3.45-1.2zM166.75-16v0c0-1.133-0.227-2.027-0.68-2.68-0.447-0.647-0.997-1.12-1.65-1.42-0.647-0.3-1.27-0.45-1.87-0.45v0c-1.633 0-3 0.64-4.1 1.92-1.1 1.287-1.833 2.78-2.2 4.48v0l10.35-0.4c0.1-0.5 0.15-0.983 0.15-1.45zM180.55-22.95v0l0.95 0.45v2.4c0.7-0.4 1.583-0.827 2.65-1.28 1.067-0.447 2.217-0.83 3.45-1.15 1.233-0.313 2.417-0.47 3.55-0.47v0c1.433 0 2.643 0.34 3.63 1.02 0.98 0.687 1.47 1.93 1.47 3.73v0 6.8c0 2.433 0.043 4.3 0.13 5.6 0.08 1.3 0.163 2.2 0.25 2.7 0.08 0.5 0.12 0.75 0.12 0.75v0c0.033 0.167 0.243 0.333 0.63 0.5 0.38 0.167 0.82 0.3 1.32 0.4 0.5 0.1 0.917 0.167 1.25 0.2v0l-0.15 1.45c-0.8-0.067-1.683-0.107-2.65-0.12-0.967-0.02-1.883-0.03-2.75-0.03v0c-0.833 0-1.773 0.01-2.82 0.03-1.053 0.013-1.98 0.053-2.78 0.12v0l0.15-1.45c0.367-0.033 0.783-0.1 1.25-0.2 0.467-0.1 0.893-0.233 1.28-0.4 0.38-0.167 0.587-0.333 0.62-0.5v0c0 0 0.033-0.25 0.1-0.75 0.067-0.5 0.133-1.4 0.2-2.7 0.067-1.3 0.1-3.167 0.1-5.6v0-5.25c0-1.233-0.357-2.077-1.07-2.53-0.72-0.447-1.613-0.67-2.68-0.67v0c-0.833 0-1.707 0.107-2.62 0.32-0.92 0.22-1.797 0.463-2.63 0.73-0.833 0.267-1.517 0.517-2.05 0.75v0c0 0.833-0.007 1.783-0.02 2.85-0.02 1.067-0.03 2.333-0.03 3.8v0c0 2.433 0.043 4.3 0.13 5.6 0.08 1.3 0.163 2.2 0.25 2.7 0.08 0.5 0.12 0.75 0.12 0.75v0c0.033 0.167 0.243 0.333 0.63 0.5 0.38 0.167 0.82 0.3 1.32 0.4 0.5 0.1 0.917 0.167 1.25 0.2v0l-0.15 1.45c-0.8-0.067-1.683-0.107-2.65-0.12-0.967-0.02-1.883-0.03-2.75-0.03v0c-0.833 0-1.773 0.01-2.82 0.03-1.053 0.013-1.98 0.053-2.78 0.12v0l0.15-1.45c0.367-0.033 0.783-0.1 1.25-0.2 0.467-0.1 0.893-0.233 1.28-0.4 0.38-0.167 0.587-0.333 0.62-0.5v0c0 0 0.033-0.25 0.1-0.75 0.067-0.5 0.133-1.4 0.2-2.7 0.067-1.3 0.1-3.167 0.1-5.6v0c0-2.433-0.033-4.243-0.1-5.43-0.067-1.18-0.133-1.963-0.2-2.35-0.067-0.38-0.1-0.57-0.1-0.57v0l-3.2-0.95-0.1-1.3c0.6 0 1.31-0.043 2.13-0.13 0.813-0.08 1.62-0.197 2.42-0.35 0.8-0.147 1.483-0.287 2.05-0.42zM216.35-3.55v0l0.6 1.65c-1.133 0.733-2.217 1.307-3.25 1.72-1.033 0.42-2.083 0.63-3.15 0.63v0c-1.433 0-2.657-0.35-3.67-1.05-1.02-0.7-1.53-2.017-1.53-3.95v0c0 0 0.01-0.41 0.03-1.23 0.013-0.813 0.02-1.813 0.02-3 0-1.18 0-2.303 0-3.37v0c0-1.667-0.007-3.193-0.02-4.58-0.02-1.38-0.047-2.57-0.08-3.57v0c-1 0.033-1.783 0.05-2.35 0.05-0.567 0-0.85 0-0.85 0v0l-0.15-0.55 1.15-1.95c0 0 0.177 0.023 0.53 0.07 0.347 0.053 0.87 0.097 1.57 0.13v0c0-0.667-0.017-1.36-0.05-2.08-0.033-0.713-0.067-1.313-0.1-1.8-0.033-0.48-0.05-0.72-0.05-0.72v0l3.3-2.95 0.95 0.45c0 0-0.007 0.357-0.02 1.07-0.02 0.72-0.037 1.613-0.05 2.68-0.02 1.067-0.03 2.167-0.03 3.3v0c2.267 0 4.06-0.01 5.38-0.03 1.313-0.013 1.97-0.02 1.97-0.02v0l0.25 0.6-1.8 2c0 0-0.45-0.033-1.35-0.1-0.9-0.067-2.383-0.117-4.45-0.15v0 6.7c0 2 0.01 3.65 0.03 4.95 0.013 1.3 0.053 2.633 0.12 4v0c0.067 0.833 0.35 1.417 0.85 1.75 0.5 0.333 1.1 0.5 1.8 0.5v0c0.767 0 1.56-0.133 2.38-0.4 0.813-0.267 1.487-0.517 2.02-0.75zM245.75-34.25v0c3.233 0 6.01-0.017 8.33-0.05 2.313-0.033 4.487-0.117 6.52-0.25v0 0.75c0 0.7 0.027 1.517 0.08 2.45 0.047 0.933 0.12 1.84 0.22 2.72 0.1 0.887 0.2 1.613 0.3 2.18v0l-1.35 0.6c-0.433-1.4-0.89-2.527-1.37-3.38-0.487-0.847-1.087-1.48-1.8-1.9-0.72-0.413-1.62-0.687-2.7-0.82-1.087-0.133-2.43-0.2-4.03-0.2v0c-0.4 0-0.757 0.067-1.07 0.2-0.32 0.133-0.513 0.517-0.58 1.15v0c0 0-0.033 0.39-0.1 1.17-0.067 0.787-0.133 2.17-0.2 4.15-0.067 1.987-0.1 4.78-0.1 8.38v0c0 3.6 0.033 6.383 0.1 8.35 0.067 1.967 0.133 3.34 0.2 4.12 0.067 0.787 0.1 1.18 0.1 1.18v0c0.067 0.633 0.417 1.073 1.05 1.32 0.633 0.253 1.7 0.53 3.2 0.83v0l-0.15 1.45c-1.033-0.067-2.083-0.107-3.15-0.12-1.067-0.02-2.233-0.03-3.5-0.03v0c-2.6 0-4.95 0.05-7.05 0.15v0l-0.15-1.45c1.5-0.3 2.6-0.577 3.3-0.83 0.7-0.247 1.083-0.687 1.15-1.32v0c0 0 0.033-0.393 0.1-1.18 0.067-0.78 0.133-2.163 0.2-4.15 0.067-1.98 0.1-4.753 0.1-8.32v0c0-3.6-0.033-6.393-0.1-8.38-0.067-1.98-0.133-3.363-0.2-4.15-0.067-0.78-0.1-1.17-0.1-1.17v0c-0.067-0.633-0.25-1.017-0.55-1.15-0.3-0.133-0.633-0.2-1-0.2v0c-1.6 0-2.94 0.067-4.02 0.2-1.087 0.133-1.98 0.407-2.68 0.82-0.7 0.42-1.3 1.053-1.8 1.9-0.5 0.853-0.967 1.98-1.4 3.38v0l-1.35-0.6c0.1-0.567 0.2-1.293 0.3-2.18 0.1-0.88 0.173-1.787 0.22-2.72 0.053-0.933 0.08-1.75 0.08-2.45v0-0.75c2.067 0.133 4.267 0.217 6.6 0.25 2.333 0.033 5.117 0.05 8.35 0.05zM278.35-2.6v0l0.5 1.3c-1.267 1.167-2.65 1.75-4.15 1.75v0c-0.833 0-1.583-0.26-2.25-0.78-0.667-0.513-1.083-1.337-1.25-2.47v0c-1.233 0.933-2.46 1.707-3.68 2.32-1.213 0.62-2.52 0.93-3.92 0.93v0c-1.333 0-2.527-0.417-3.58-1.25-1.047-0.833-1.57-2.15-1.57-3.95v0c0-1.2 0.383-2.377 1.15-3.53 0.767-1.147 2.073-2.13 3.92-2.95 1.853-0.813 4.363-1.32 7.53-1.52v0-4.65c0-0.967-0.357-1.693-1.07-2.18-0.72-0.48-1.58-0.72-2.58-0.72v0c-1.467 0-2.55 0.35-3.25 1.05-0.7 0.7-1.05 1.567-1.05 2.6v0c0 0.4 0.05 0.85 0.15 1.35v0l-1.1 0.5c-0.7-0.367-1.333-0.873-1.9-1.52-0.567-0.653-0.85-1.113-0.85-1.38v0c0-0.233 0.207-0.633 0.62-1.2 0.42-0.567 1.047-1.167 1.88-1.8 0.833-0.633 1.85-1.177 3.05-1.63 1.2-0.447 2.583-0.67 4.15-0.67v0c1.033 0 1.977 0.15 2.83 0.45 0.847 0.3 1.52 0.833 2.02 1.6 0.5 0.767 0.75 1.867 0.75 3.3v0c0 0.333 0.01 0.933 0.03 1.8 0.013 0.867 0.037 1.867 0.07 3 0.033 1.133 0.06 2.273 0.08 3.42 0.013 1.153 0.037 2.163 0.07 3.03 0.033 0.867 0.05 1.467 0.05 1.8v0c0.033 0.9 0.223 1.523 0.57 1.87 0.353 0.353 0.763 0.53 1.23 0.53v0c0.2 0 0.433-0.033 0.7-0.1 0.267-0.067 0.55-0.167 0.85-0.3zM271.05-4.7v0-5.8c-2.933 0.067-5.067 0.617-6.4 1.65-1.333 1.033-2 2.133-2 3.3v0c0 1 0.3 1.75 0.9 2.25 0.6 0.5 1.383 0.75 2.35 0.75v0c0.733 0 1.54-0.177 2.42-0.53 0.887-0.347 1.797-0.887 2.73-1.62zM288-17.6v0c0 3 0.027 5.45 0.08 7.35 0.047 1.9 0.103 3.4 0.17 4.5 0.067 1.1 0.127 1.89 0.18 2.37 0.047 0.487 0.087 0.813 0.12 0.98v0c0.033 0.167 0.267 0.333 0.7 0.5 0.433 0.167 0.927 0.3 1.48 0.4 0.547 0.1 0.987 0.167 1.32 0.2v0l-0.15 1.45c-0.8-0.067-1.733-0.107-2.8-0.12-1.067-0.02-2.033-0.03-2.9-0.03v0c-0.833 0-1.823 0.01-2.97 0.03-1.153 0.013-2.13 0.053-2.93 0.12v0l0.15-1.45c0.367-0.033 0.81-0.1 1.33-0.2 0.513-0.1 0.987-0.233 1.42-0.4 0.433-0.167 0.667-0.333 0.7-0.5v0c0 0 0.017-0.243 0.05-0.73 0.033-0.48 0.077-1.313 0.13-2.5 0.047-1.18 0.087-2.813 0.12-4.9 0.033-2.08 0.05-4.737 0.05-7.97v0c0-3.2-0.017-5.783-0.05-7.75-0.033-1.967-0.083-3.467-0.15-4.5-0.067-1.033-0.117-1.727-0.15-2.08-0.033-0.347-0.05-0.52-0.05-0.52v0l-3.2-0.95-0.1-1.3c0.6 0 1.31-0.043 2.13-0.13 0.813-0.08 1.62-0.197 2.42-0.35 0.8-0.147 1.483-0.287 2.05-0.42v0l0.95 0.45c0 0-0.017 1.55-0.05 4.65-0.033 3.1-0.05 7.7-0.05 13.8zM313.1-4.15v0l0.6 1.5c-1.033 0.833-2.24 1.557-3.62 2.17-1.387 0.62-2.913 0.93-4.58 0.93v0c-2.467 0-4.49-0.493-6.07-1.48-1.587-0.98-2.753-2.287-3.5-3.92-0.753-1.633-1.13-3.433-1.13-5.4v0c0-1.6 0.227-3.15 0.68-4.65 0.447-1.5 1.137-2.85 2.07-4.05 0.933-1.2 2.167-2.16 3.7-2.88 1.533-0.713 3.367-1.07 5.5-1.07v0c1.2 0 2.383 0.283 3.55 0.85 1.167 0.567 2.133 1.473 2.9 2.72 0.767 1.253 1.15 2.913 1.15 4.98v0l-1.7 2.05c-0.133-0.033-0.357-0.05-0.67-0.05-0.32 0-0.713 0-1.18 0v0c-0.833 0-1.817 0.007-2.95 0.02-1.133 0.02-2.283 0.047-3.45 0.08-1.167 0.033-2.233 0.073-3.2 0.12-0.967 0.053-1.683 0.097-2.15 0.13v0 0.45c0 3.133 0.66 5.433 1.98 6.9 1.313 1.467 3.02 2.2 5.12 2.2v0c1.233 0 2.4-0.133 3.5-0.4 1.1-0.267 2.25-0.667 3.45-1.2zM309.85-16v0c0-1.133-0.223-2.027-0.67-2.68-0.453-0.647-1.003-1.12-1.65-1.42-0.653-0.3-1.28-0.45-1.88-0.45v0c-1.633 0-3 0.64-4.1 1.92-1.1 1.287-1.833 2.78-2.2 4.48v0l10.35-0.4c0.1-0.5 0.15-0.983 0.15-1.45zM323.65-22.95v0l0.95 0.45v2.4c0.7-0.4 1.583-0.827 2.65-1.28 1.067-0.447 2.217-0.83 3.45-1.15 1.233-0.313 2.417-0.47 3.55-0.47v0c1.433 0 2.643 0.34 3.63 1.02 0.98 0.687 1.47 1.93 1.47 3.73v0 6.8c0 2.433 0.043 4.3 0.13 5.6 0.08 1.3 0.163 2.2 0.25 2.7 0.08 0.5 0.12 0.75 0.12 0.75v0c0.033 0.167 0.243 0.333 0.63 0.5 0.38 0.167 0.82 0.3 1.32 0.4 0.5 0.1 0.917 0.167 1.25 0.2v0l-0.15 1.45c-0.8-0.067-1.683-0.107-2.65-0.12-0.967-0.02-1.883-0.03-2.75-0.03v0c-0.833 0-1.773 0.01-2.82 0.03-1.053 0.013-1.98 0.053-2.78 0.12v0l0.15-1.45c0.367-0.033 0.783-0.1 1.25-0.2 0.467-0.1 0.893-0.233 1.28-0.4 0.38-0.167 0.587-0.333 0.62-0.5v0c0 0 0.033-0.25 0.1-0.75 0.067-0.5 0.133-1.4 0.2-2.7 0.067-1.3 0.1-3.167 0.1-5.6v0-5.25c0-1.233-0.357-2.077-1.07-2.53-0.72-0.447-1.613-0.67-2.68-0.67v0c-0.833 0-1.707 0.107-2.62 0.32-0.92 0.22-1.797 0.463-2.63 0.73-0.833 0.267-1.517 0.517-2.05 0.75v0c0 0.833-0.007 1.783-0.02 2.85-0.02 1.067-0.03 2.333-0.03 3.8v0c0 2.433 0.043 4.3 0.13 5.6 0.08 1.3 0.163 2.2 0.25 2.7 0.08 0.5 0.12 0.75 0.12 0.75v0c0.033 0.167 0.243 0.333 0.63 0.5 0.38 0.167 0.82 0.3 1.32 0.4 0.5 0.1 0.917 0.167 1.25 0.2v0l-0.15 1.45c-0.8-0.067-1.683-0.107-2.65-0.12-0.967-0.02-1.883-0.03-2.75-0.03v0c-0.833 0-1.773 0.01-2.82 0.03-1.053 0.013-1.98 0.053-2.78 0.12v0l0.15-1.45c0.367-0.033 0.783-0.1 1.25-0.2 0.467-0.1 0.893-0.233 1.28-0.4 0.38-0.167 0.587-0.333 0.62-0.5v0c0 0 0.033-0.25 0.1-0.75 0.067-0.5 0.133-1.4 0.2-2.7 0.067-1.3 0.1-3.167 0.1-5.6v0c0-2.433-0.033-4.243-0.1-5.43-0.067-1.18-0.133-1.963-0.2-2.35-0.067-0.38-0.1-0.57-0.1-0.57v0l-3.2-0.95-0.1-1.3c0.6 0 1.31-0.043 2.13-0.13 0.813-0.08 1.62-0.197 2.42-0.35 0.8-0.147 1.483-0.287 2.05-0.42zM359.45-3.55v0l0.6 1.65c-1.133 0.733-2.217 1.307-3.25 1.72-1.033 0.42-2.083 0.63-3.15 0.63v0c-1.433 0-2.657-0.35-3.67-1.05-1.02-0.7-1.53-2.017-1.53-3.95v0c0 0 0.01-0.41 0.03-1.23 0.013-0.813 0.02-1.813 0.02-3 0-1.18 0-2.303 0-3.37v0c0-1.667-0.007-3.193-0.02-4.58-0.02-1.38-0.047-2.57-0.08-3.57v0c-1 0.033-1.783 0.05-2.35 0.05-0.567 0-0.85 0-0.85 0v0l-0.15-0.55 1.15-1.95c0 0 0.177 0.023 0.53 0.07 0.347 0.053 0.87 0.097 1.57 0.13v0c0-0.667-0.017-1.36-0.05-2.08-0.033-0.713-0.067-1.313-0.1-1.8-0.033-0.48-0.05-0.72-0.05-0.72v0l3.3-2.95 0.95 0.45c0 0-0.007 0.357-0.02 1.07-0.02 0.72-0.037 1.613-0.05 2.68-0.02 1.067-0.03 2.167-0.03 3.3v0c2.267 0 4.06-0.01 5.38-0.03 1.313-0.013 1.97-0.02 1.97-0.02v0l0.25 0.6-1.8 2c0 0-0.45-0.033-1.35-0.1-0.9-0.067-2.383-0.117-4.45-0.15v0 6.7c0 2 0.01 3.65 0.03 4.95 0.013 1.3 0.053 2.633 0.12 4v0c0.067 0.833 0.35 1.417 0.85 1.75 0.5 0.333 1.1 0.5 1.8 0.5v0c0.767 0 1.56-0.133 2.38-0.4 0.813-0.267 1.487-0.517 2.02-0.75zM372.9 0.15v0l-0.15-1.45c1.567-0.3 2.683-0.623 3.35-0.97 0.667-0.353 1.1-0.847 1.3-1.48v0l9.95-30.45 4.2-0.5 11.65 31.25c0.233 0.567 0.627 1 1.18 1.3 0.547 0.3 1.57 0.583 3.07 0.85v0l-0.15 1.45c-1.1-0.067-2.183-0.107-3.25-0.12-1.067-0.02-2.2-0.03-3.4-0.03v0c-2.633 0-4.983 0.05-7.05 0.15v0l-0.15-1.45c1.733-0.333 2.9-0.633 3.5-0.9 0.6-0.267 0.9-0.6 0.9-1v0l-2.75-8.9h-11.3l-2.7 8.9c0 0.4 0.317 0.733 0.95 1 0.633 0.267 1.75 0.567 3.35 0.9v0l-0.15 1.45c-1.1-0.067-2.183-0.107-3.25-0.12-1.067-0.02-2.2-0.03-3.4-0.03v0c-1.033 0-1.917 0.01-2.65 0.03-0.733 0.013-1.75 0.053-3.05 0.12zM389.05-29.5l-4.55 15.1h9.8l-5.05-15.1zM427.9-4.5v0l0.6 1.65c-1.133 0.9-2.423 1.673-3.87 2.32-1.453 0.653-3.113 0.98-4.98 0.98v0c-2.333 0-4.273-0.493-5.82-1.48-1.553-0.98-2.703-2.32-3.45-4.02-0.753-1.7-1.13-3.6-1.13-5.7v0c0-1.5 0.243-2.977 0.73-4.43 0.48-1.447 1.197-2.763 2.15-3.95 0.947-1.18 2.13-2.12 3.55-2.82 1.413-0.7 3.07-1.05 4.97-1.05v0c1.433 0 2.717 0.24 3.85 0.72 1.133 0.487 2.033 1.003 2.7 1.55 0.667 0.553 1 0.93 1 1.13v0c0 0.433-0.1 1.007-0.3 1.72-0.2 0.72-0.5 1.363-0.9 1.93v0h-1.2c-0.2-0.567-0.533-1.183-1-1.85-0.467-0.667-1.083-1.25-1.85-1.75-0.767-0.5-1.717-0.75-2.85-0.75v0c-1.467 0-2.683 0.457-3.65 1.37-0.967 0.92-1.673 2.087-2.12 3.5-0.453 1.42-0.68 2.863-0.68 4.33v0c0 3.033 0.683 5.223 2.05 6.57 1.367 1.353 3.117 2.03 5.25 2.03v0c1.067 0 2.233-0.177 3.5-0.53 1.267-0.347 2.417-0.837 3.45-1.47zM449.25-21.5v0l2.1-1.85 0.95 0.45c0 0-0.017 1.527-0.05 4.58-0.033 3.047-0.05 7.67-0.05 13.87v0c0 3 0.027 5.45 0.08 7.35 0.047 1.9 0.103 3.4 0.17 4.5 0.067 1.1 0.127 1.893 0.18 2.38 0.047 0.48 0.087 0.803 0.12 0.97v0c0.033 0.167 0.243 0.317 0.63 0.45 0.38 0.133 0.82 0.243 1.32 0.33 0.5 0.08 0.917 0.137 1.25 0.17v0l-0.15 1.45c-0.8-0.067-1.683-0.107-2.65-0.12-0.967-0.02-1.883-0.03-2.75-0.03v0c-0.833 0-1.823 0.01-2.97 0.03-1.153 0.013-2.13 0.053-2.93 0.12v0l0.15-1.45c0.367-0.033 0.81-0.09 1.33-0.17 0.513-0.087 0.987-0.197 1.42-0.33 0.433-0.133 0.667-0.283 0.7-0.45v0c0 0 0.033-0.357 0.1-1.07 0.067-0.72 0.133-2.02 0.2-3.9 0.067-1.887 0.1-4.547 0.1-7.98v0c-1.433 1-2.74 1.7-3.92 2.1-1.187 0.4-2.53 0.6-4.03 0.6v0c-1.9 0-3.517-0.523-4.85-1.57-1.333-1.053-2.34-2.423-3.02-4.11-0.687-1.68-1.03-3.47-1.03-5.37v0c0-2.4 0.51-4.543 1.53-6.43 1.013-1.88 2.37-3.363 4.07-4.45 1.7-1.08 3.583-1.62 5.65-1.62v0c1.033 0 2.11 0.117 3.23 0.35 1.113 0.233 2.153 0.633 3.12 1.2zM448.55-4.05v0c0-3.467-0.033-6.277-0.1-8.43-0.067-2.147-0.133-3.78-0.2-4.9-0.067-1.113-0.117-1.803-0.15-2.07v0c-0.767-0.3-1.5-0.517-2.2-0.65-0.7-0.133-1.367-0.2-2-0.2v0c-1.7 0-3.123 0.483-4.27 1.45-1.153 0.967-2.03 2.19-2.63 3.67-0.6 1.487-0.9 3.03-0.9 4.63v0c0 1.367 0.233 2.667 0.7 3.9 0.467 1.233 1.183 2.233 2.15 3 0.967 0.767 2.217 1.15 3.75 1.15v0c1.067 0 2.043-0.127 2.93-0.38 0.88-0.247 1.853-0.637 2.92-1.17zM479.3-4.25v0c0.033 0.6 0.243 1.05 0.63 1.35 0.38 0.3 0.863 0.49 1.45 0.57 0.58 0.087 1.153 0.147 1.72 0.18v0l-0.15 1.45c-0.9 0.067-1.817 0.19-2.75 0.37-0.933 0.187-1.833 0.363-2.7 0.53v0c0 0-0.273-0.21-0.82-0.63-0.553-0.413-0.963-1.203-1.23-2.37v0c-1.333 0.9-2.867 1.667-4.6 2.3-1.733 0.633-3.433 0.95-5.1 0.95v0c-1.467 0-2.683-0.377-3.65-1.13-0.967-0.747-1.45-2.103-1.45-4.07v0-6.7c0-2.433-0.023-4.243-0.07-5.43-0.053-1.18-0.113-1.963-0.18-2.35-0.067-0.38-0.1-0.57-0.1-0.57v0l-2.95-0.95-0.1-1.3c0.9 0 1.977-0.093 3.23-0.28 1.247-0.18 2.287-0.387 3.12-0.62v0l0.95 0.45c0 0-0.007 0.5-0.02 1.5-0.02 1-0.037 2.323-0.05 3.97-0.02 1.653-0.037 3.437-0.05 5.35-0.02 1.92-0.03 3.813-0.03 5.68v0c0 1.233 0.343 2.1 1.03 2.6 0.68 0.5 1.687 0.75 3.02 0.75v0c1.233 0 2.493-0.233 3.78-0.7 1.28-0.467 2.27-0.933 2.97-1.4v0c0.067-0.667 0.117-1.467 0.15-2.4 0.033-0.933 0.05-2.367 0.05-4.3v0c0-2.433-0.033-4.243-0.1-5.43-0.067-1.18-0.133-1.963-0.2-2.35-0.067-0.38-0.1-0.57-0.1-0.57v0l-3.15-0.95-0.1-1.3c0.6 0 1.31-0.043 2.13-0.13 0.813-0.08 1.62-0.197 2.42-0.35 0.8-0.147 1.483-0.287 2.05-0.42v0l0.95 0.45c0 0-0.023 0.983-0.07 2.95-0.053 1.967-0.08 5.117-0.08 9.45v0c0 2.1 0.027 3.6 0.08 4.5 0.047 0.9 0.07 1.35 0.07 1.35zM491.95-22.95v0l0.95 0.45c0 0.433-0.007 1.1-0.02 2-0.02 0.9-0.03 1.89-0.03 2.97 0 1.087-0.007 2.17-0.02 3.25-0.02 1.087-0.03 2.03-0.03 2.83v0c0 2.433 0.043 4.3 0.13 5.6 0.08 1.3 0.163 2.2 0.25 2.7 0.08 0.5 0.12 0.75 0.12 0.75v0c0.033 0.167 0.277 0.333 0.73 0.5 0.447 0.167 0.947 0.3 1.5 0.4 0.547 0.1 0.987 0.167 1.32 0.2v0l-0.15 1.45c-0.8-0.067-1.74-0.107-2.82-0.12-1.087-0.02-2.063-0.03-2.93-0.03v0c-0.833 0-1.833 0.01-3 0.03-1.167 0.013-2.15 0.053-2.95 0.12v0l0.15-1.45c0.367-0.033 0.817-0.1 1.35-0.2 0.533-0.1 1.017-0.233 1.45-0.4 0.433-0.167 0.667-0.333 0.7-0.5v0c0 0 0.033-0.25 0.1-0.75 0.067-0.5 0.133-1.4 0.2-2.7 0.067-1.3 0.1-3.167 0.1-5.6v0c0-2.433-0.033-4.243-0.1-5.43-0.067-1.18-0.133-1.963-0.2-2.35-0.067-0.38-0.1-0.57-0.1-0.57v0l-3.2-0.95-0.1-1.3c0.6 0 1.31-0.043 2.13-0.13 0.813-0.08 1.62-0.197 2.42-0.35 0.8-0.147 1.483-0.287 2.05-0.42zM490.8-28.15v0c-0.733 0-1.35-0.26-1.85-0.78-0.5-0.513-0.75-1.153-0.75-1.92v0c0-0.733 0.25-1.35 0.75-1.85 0.5-0.5 1.117-0.75 1.85-0.75v0c0.733 0 1.35 0.25 1.85 0.75 0.5 0.5 0.75 1.117 0.75 1.85v0c0 0.767-0.25 1.407-0.75 1.92-0.5 0.52-1.117 0.78-1.85 0.78zM507.3-23v0c2.067 0 3.677 0.207 4.83 0.62 1.147 0.42 1.72 0.63 1.72 0.63v0c0 0.733 0.017 1.567 0.05 2.5 0.033 0.933 0.117 1.75 0.25 2.45v0l-1.3 0.45c-0.433-1.767-1.05-2.967-1.85-3.6-0.8-0.633-1.833-0.95-3.1-0.95v0c-1.133 0-2.04 0.317-2.72 0.95-0.687 0.633-1.03 1.383-1.03 2.25v0c0 0.6 0.183 1.223 0.55 1.87 0.367 0.653 1.05 1.263 2.05 1.83v0l5.1 2.8c1.033 0.567 1.843 1.283 2.43 2.15 0.58 0.867 0.87 1.933 0.87 3.2v0c0 1-0.267 1.983-0.8 2.95-0.533 0.967-1.39 1.767-2.57 2.4-1.187 0.633-2.73 0.95-4.63 0.95v0c-1 0-2.14-0.1-3.42-0.3-1.287-0.2-2.647-0.517-4.08-0.95v0c0.1-0.5 0.193-1.11 0.28-1.83 0.08-0.713 0.153-1.43 0.22-2.15 0.067-0.713 0.1-1.303 0.1-1.77v0l1.3-0.45c0.3 1.167 0.6 2.173 0.9 3.02 0.3 0.853 0.777 1.497 1.43 1.93 0.647 0.433 1.637 0.65 2.97 0.65v0c1.433 0 2.517-0.35 3.25-1.05 0.733-0.7 1.1-1.483 1.1-2.35v0c0-0.633-0.19-1.25-0.57-1.85-0.387-0.6-0.98-1.117-1.78-1.55v0l-5.4-3c-1.133-0.6-1.967-1.383-2.5-2.35-0.533-0.967-0.8-1.967-0.8-3v0c0-1.067 0.277-2.093 0.83-3.08 0.547-0.98 1.353-1.787 2.42-2.42 1.067-0.633 2.367-0.95 3.9-0.95zM524.8-22.95v0l0.95 0.45c0 0.433-0.007 1.1-0.02 2-0.02 0.9-0.03 1.89-0.03 2.97 0 1.087-0.01 2.17-0.03 3.25-0.013 1.087-0.02 2.03-0.02 2.83v0c0 2.433 0.04 4.3 0.12 5.6 0.087 1.3 0.17 2.2 0.25 2.7 0.087 0.5 0.13 0.75 0.13 0.75v0c0.033 0.167 0.277 0.333 0.73 0.5 0.447 0.167 0.947 0.3 1.5 0.4 0.547 0.1 0.987 0.167 1.32 0.2v0l-0.15 1.45c-0.8-0.067-1.74-0.107-2.82-0.12-1.087-0.02-2.063-0.03-2.93-0.03v0c-0.833 0-1.833 0.01-3 0.03-1.167 0.013-2.15 0.053-2.95 0.12v0l0.15-1.45c0.367-0.033 0.817-0.1 1.35-0.2 0.533-0.1 1.017-0.233 1.45-0.4 0.433-0.167 0.667-0.333 0.7-0.5v0c0 0 0.033-0.25 0.1-0.75 0.067-0.5 0.133-1.4 0.2-2.7 0.067-1.3 0.1-3.167 0.1-5.6v0c0-2.433-0.033-4.243-0.1-5.43-0.067-1.18-0.133-1.963-0.2-2.35-0.067-0.38-0.1-0.57-0.1-0.57v0l-3.2-0.95-0.1-1.3c0.6 0 1.31-0.043 2.13-0.13 0.813-0.08 1.62-0.197 2.42-0.35 0.8-0.147 1.483-0.287 2.05-0.42zM523.65-28.15v0c-0.733 0-1.35-0.26-1.85-0.78-0.5-0.513-0.75-1.153-0.75-1.92v0c0-0.733 0.25-1.35 0.75-1.85 0.5-0.5 1.117-0.75 1.85-0.75v0c0.733 0 1.35 0.25 1.85 0.75 0.5 0.5 0.75 1.117 0.75 1.85v0c0 0.767-0.25 1.407-0.75 1.92-0.5 0.52-1.117 0.78-1.85 0.78zM546.05-3.55v0l0.6 1.65c-1.133 0.733-2.217 1.307-3.25 1.72-1.033 0.42-2.083 0.63-3.15 0.63v0c-1.433 0-2.657-0.35-3.67-1.05-1.02-0.7-1.53-2.017-1.53-3.95v0c0 0 0.01-0.41 0.03-1.23 0.013-0.813 0.02-1.813 0.02-3 0-1.18 0-2.303 0-3.37v0c0-1.667-0.007-3.193-0.02-4.58-0.02-1.38-0.047-2.57-0.08-3.57v0c-1 0.033-1.783 0.05-2.35 0.05-0.567 0-0.85 0-0.85 0v0l-0.15-0.55 1.15-1.95c0 0 0.177 0.023 0.53 0.07 0.347 0.053 0.87 0.097 1.57 0.13v0c0-0.667-0.017-1.36-0.05-2.08-0.033-0.713-0.067-1.313-0.1-1.8-0.033-0.48-0.05-0.72-0.05-0.72v0l3.3-2.95 0.95 0.45c0 0-0.01 0.357-0.03 1.07-0.013 0.72-0.027 1.613-0.04 2.68-0.02 1.067-0.03 2.167-0.03 3.3v0c2.267 0 4.06-0.01 5.38-0.03 1.313-0.013 1.97-0.02 1.97-0.02v0l0.25 0.6-1.8 2c0 0-0.45-0.033-1.35-0.1-0.9-0.067-2.383-0.117-4.45-0.15v0 6.7c0 2 0.01 3.65 0.03 4.95 0.013 1.3 0.053 2.633 0.12 4v0c0.067 0.833 0.35 1.417 0.85 1.75 0.5 0.333 1.1 0.5 1.8 0.5v0c0.767 0 1.557-0.133 2.37-0.4 0.82-0.267 1.497-0.517 2.03-0.75zM554.9-22.95v0l0.95 0.45c0 0.433-0.007 1.1-0.02 2-0.02 0.9-0.03 1.89-0.03 2.97 0 1.087-0.01 2.17-0.03 3.25-0.013 1.087-0.02 2.03-0.02 2.83v0c0 2.433 0.043 4.3 0.13 5.6 0.08 1.3 0.163 2.2 0.25 2.7 0.08 0.5 0.12 0.75 0.12 0.75v0c0.033 0.167 0.277 0.333 0.73 0.5 0.447 0.167 0.947 0.3 1.5 0.4 0.547 0.1 0.987 0.167 1.32 0.2v0l-0.15 1.45c-0.8-0.067-1.74-0.107-2.82-0.12-1.087-0.02-2.063-0.03-2.93-0.03v0c-0.833 0-1.833 0.01-3 0.03-1.167 0.013-2.15 0.053-2.95 0.12v0l0.15-1.45c0.367-0.033 0.817-0.1 1.35-0.2 0.533-0.1 1.017-0.233 1.45-0.4 0.433-0.167 0.667-0.333 0.7-0.5v0c0 0 0.033-0.25 0.1-0.75 0.067-0.5 0.133-1.4 0.2-2.7 0.067-1.3 0.1-3.167 0.1-5.6v0c0-2.433-0.033-4.243-0.1-5.43-0.067-1.18-0.133-1.963-0.2-2.35-0.067-0.38-0.1-0.57-0.1-0.57v0l-3.2-0.95-0.1-1.3c0.6 0 1.31-0.043 2.13-0.13 0.813-0.08 1.62-0.197 2.42-0.35 0.8-0.147 1.483-0.287 2.05-0.42zM553.75-28.15v0c-0.733 0-1.35-0.26-1.85-0.78-0.5-0.513-0.75-1.153-0.75-1.92v0c0-0.733 0.25-1.35 0.75-1.85 0.5-0.5 1.117-0.75 1.85-0.75v0c0.733 0 1.35 0.25 1.85 0.75 0.5 0.5 0.75 1.117 0.75 1.85v0c0 0.767-0.25 1.407-0.75 1.92-0.5 0.52-1.117 0.78-1.85 0.78zM585.1-12.15v0c0 1.6-0.223 3.15-0.67 4.65-0.453 1.5-1.147 2.85-2.08 4.05-0.933 1.2-2.157 2.15-3.67 2.85-1.52 0.7-3.363 1.05-5.53 1.05v0c-3.733 0-6.433-0.993-8.1-2.98-1.667-1.98-2.5-4.57-2.5-7.77v0c0-1.6 0.227-3.15 0.68-4.65 0.447-1.5 1.137-2.86 2.07-4.08 0.933-1.213 2.167-2.18 3.7-2.9 1.533-0.713 3.367-1.07 5.5-1.07v0c2.5 0 4.527 0.457 6.08 1.37 1.547 0.92 2.687 2.197 3.42 3.83 0.733 1.633 1.1 3.517 1.1 5.65zM580.8-10.3v0c0-1.7-0.19-3.333-0.57-4.9-0.387-1.567-1.07-2.85-2.05-3.85-0.987-1-2.397-1.5-4.23-1.5v0c-1.467 0-2.667 0.34-3.6 1.02-0.933 0.687-1.65 1.53-2.15 2.53-0.5 1-0.85 2-1.05 3-0.2 1-0.3 1.833-0.3 2.5v0c0 1.633 0.217 3.173 0.65 4.62 0.433 1.453 1.15 2.637 2.15 3.55 1 0.92 2.35 1.38 4.05 1.38v0c1.333 0 2.46-0.293 3.38-0.88 0.913-0.58 1.643-1.32 2.19-2.22 0.553-0.9 0.947-1.827 1.18-2.78 0.233-0.947 0.35-1.77 0.35-2.47zM594.8-22.95v0l0.95 0.45v2.4c0.7-0.4 1.583-0.827 2.65-1.28 1.067-0.447 2.217-0.83 3.45-1.15 1.233-0.313 2.417-0.47 3.55-0.47v0c1.433 0 2.643 0.34 3.63 1.02 0.98 0.687 1.47 1.93 1.47 3.73v0 6.8c0 2.433 0.043 4.3 0.13 5.6 0.08 1.3 0.163 2.2 0.25 2.7 0.08 0.5 0.12 0.75 0.12 0.75v0c0.033 0.167 0.243 0.333 0.63 0.5 0.38 0.167 0.82 0.3 1.32 0.4 0.5 0.1 0.917 0.167 1.25 0.2v0l-0.15 1.45c-0.8-0.067-1.683-0.107-2.65-0.12-0.967-0.02-1.883-0.03-2.75-0.03v0c-0.833 0-1.773 0.01-2.82 0.03-1.053 0.013-1.98 0.053-2.78 0.12v0l0.15-1.45c0.367-0.033 0.783-0.1 1.25-0.2 0.467-0.1 0.893-0.233 1.28-0.4 0.38-0.167 0.587-0.333 0.62-0.5v0c0 0 0.033-0.25 0.1-0.75 0.067-0.5 0.133-1.4 0.2-2.7 0.067-1.3 0.1-3.167 0.1-5.6v0-5.25c0-1.233-0.357-2.077-1.07-2.53-0.72-0.447-1.613-0.67-2.68-0.67v0c-0.833 0-1.707 0.107-2.62 0.32-0.92 0.22-1.797 0.463-2.63 0.73-0.833 0.267-1.517 0.517-2.05 0.75v0c0 0.833-0.007 1.783-0.02 2.85-0.02 1.067-0.03 2.333-0.03 3.8v0c0 2.433 0.043 4.3 0.13 5.6 0.08 1.3 0.163 2.2 0.25 2.7 0.08 0.5 0.12 0.75 0.12 0.75v0c0.033 0.167 0.243 0.333 0.63 0.5 0.38 0.167 0.82 0.3 1.32 0.4 0.5 0.1 0.917 0.167 1.25 0.2v0l-0.15 1.45c-0.8-0.067-1.683-0.107-2.65-0.12-0.967-0.02-1.883-0.03-2.75-0.03v0c-0.833 0-1.773 0.01-2.82 0.03-1.053 0.013-1.98 0.053-2.78 0.12v0l0.15-1.45c0.367-0.033 0.783-0.1 1.25-0.2 0.467-0.1 0.893-0.233 1.28-0.4 0.38-0.167 0.587-0.333 0.62-0.5v0c0 0 0.033-0.25 0.1-0.75 0.067-0.5 0.133-1.4 0.2-2.7 0.067-1.3 0.1-3.167 0.1-5.6v0c0-2.433-0.033-4.243-0.1-5.43-0.067-1.18-0.133-1.963-0.2-2.35-0.067-0.38-0.1-0.57-0.1-0.57v0l-3.2-0.95-0.1-1.3c0.6 0 1.31-0.043 2.13-0.13 0.813-0.08 1.62-0.197 2.42-0.35 0.8-0.147 1.483-0.287 2.05-0.42zM649.7-26.45v0l-1.35 0.6c-0.7-2.567-1.657-4.267-2.87-5.1-1.22-0.833-2.763-1.25-4.63-1.25v0c-1.933 0-3.373 0.473-4.32 1.42-0.953 0.953-1.43 2.063-1.43 3.33v0c0 0.967 0.283 1.933 0.85 2.9 0.567 0.967 1.4 1.817 2.5 2.55v0l7.9 5.15c3.467 2.267 5.2 4.95 5.2 8.05v0c0 1.5-0.417 2.967-1.25 4.4-0.833 1.433-2.083 2.607-3.75 3.52-1.667 0.92-3.767 1.38-6.3 1.38v0c-1.733 0-3.557-0.167-5.47-0.5-1.92-0.333-3.53-0.767-4.83-1.3v0c0.167-0.9 0.343-1.96 0.53-3.18 0.18-1.213 0.27-2.603 0.27-4.17v0l1.35-0.6c0.333 1.8 0.783 3.223 1.35 4.27 0.567 1.053 1.343 1.803 2.33 2.25 0.98 0.453 2.253 0.68 3.82 0.68v0c1.533 0 2.793-0.277 3.78-0.83 0.98-0.547 1.72-1.237 2.22-2.07 0.5-0.833 0.75-1.717 0.75-2.65v0c0-2.033-1.083-3.75-3.25-5.15v0l-8-5.25c-1.567-1.033-2.723-2.227-3.47-3.58-0.753-1.347-1.13-2.72-1.13-4.12v0c0-1.533 0.417-2.983 1.25-4.35 0.833-1.367 2.017-2.483 3.55-3.35 1.533-0.867 3.367-1.3 5.5-1.3v0c0.933 0 1.727 0.06 2.38 0.18 0.647 0.113 1.253 0.237 1.82 0.37 0.567 0.133 1.183 0.2 1.85 0.2v0c0.667 0 1.417-0.1 2.25-0.3v0 0.75c0 0.667 0.033 1.44 0.1 2.32 0.067 0.887 0.143 1.753 0.23 2.6 0.08 0.853 0.17 1.563 0.27 2.13zM665.35 0v0l-1.75-1.05-6.5-18.25c-0.133-0.367-0.4-0.76-0.8-1.18-0.4-0.413-1.15-0.703-2.25-0.87v0l-0.15-1.45c0 0 0.3 0.007 0.9 0.02 0.6 0.02 1.3 0.047 2.1 0.08 0.8 0.033 1.5 0.05 2.1 0.05v0c0.633 0 1.333-0.017 2.1-0.05 0.767-0.033 1.427-0.06 1.98-0.08 0.547-0.013 0.82-0.02 0.82-0.02v0l0.15 1.45c-1.1 0.133-1.873 0.35-2.32 0.65-0.453 0.3-0.68 0.583-0.68 0.85v0c0 0.133 0.483 1.607 1.45 4.42 0.967 2.82 2.317 6.897 4.05 12.23v0c1.867-5.267 3.267-9.293 4.2-12.08 0.933-2.78 1.4-4.32 1.4-4.62v0c0-0.733-0.917-1.217-2.75-1.45v0l-0.15-1.45c0 0 0.367 0.023 1.1 0.07 0.733 0.053 1.567 0.08 2.5 0.08v0c0.6 0 1.3-0.017 2.1-0.05 0.8-0.033 1.5-0.06 2.1-0.08 0.6-0.013 0.9-0.02 0.9-0.02v0l0.15 1.45c-1.033 0.133-1.757 0.323-2.17 0.57-0.42 0.253-0.703 0.613-0.85 1.08-0.153 0.467-0.397 1.133-0.73 2v0l-6.65 17.7c-1.2 3.2-2.333 5.7-3.4 7.5-1.067 1.8-2.023 3.1-2.87 3.9-0.853 0.8-1.597 1.293-2.23 1.48-0.633 0.18-1.133 0.27-1.5 0.27v0c-0.167 0-0.423-0.173-0.77-0.52-0.353-0.353-0.697-0.803-1.03-1.35-0.333-0.553-0.583-1.097-0.75-1.63v0l0.75-0.95c0.633 0.3 1.383 0.45 2.25 0.45v0c0.533 0 1.167-0.233 1.9-0.7 0.733-0.467 1.55-1.357 2.45-2.67 0.9-1.32 1.85-3.247 2.85-5.78zM687.7-23v0c2.067 0 3.677 0.207 4.83 0.62 1.147 0.42 1.72 0.63 1.72 0.63v0c0 0.733 0.017 1.567 0.05 2.5 0.033 0.933 0.117 1.75 0.25 2.45v0l-1.3 0.45c-0.433-1.767-1.05-2.967-1.85-3.6-0.8-0.633-1.833-0.95-3.1-0.95v0c-1.133 0-2.04 0.317-2.72 0.95-0.687 0.633-1.03 1.383-1.03 2.25v0c0 0.6 0.183 1.223 0.55 1.87 0.367 0.653 1.05 1.263 2.05 1.83v0l5.1 2.8c1.033 0.567 1.843 1.283 2.43 2.15 0.58 0.867 0.87 1.933 0.87 3.2v0c0 1-0.267 1.983-0.8 2.95-0.533 0.967-1.39 1.767-2.57 2.4-1.187 0.633-2.73 0.95-4.63 0.95v0c-1 0-2.14-0.1-3.42-0.3-1.287-0.2-2.647-0.517-4.08-0.95v0c0.1-0.5 0.193-1.11 0.28-1.83 0.08-0.713 0.153-1.43 0.22-2.15 0.067-0.713 0.1-1.303 0.1-1.77v0l1.3-0.45c0.3 1.167 0.6 2.173 0.9 3.02 0.3 0.853 0.777 1.497 1.43 1.93 0.647 0.433 1.637 0.65 2.97 0.65v0c1.433 0 2.517-0.35 3.25-1.05 0.733-0.7 1.1-1.483 1.1-2.35v0c0-0.633-0.19-1.25-0.57-1.85-0.387-0.6-0.98-1.117-1.78-1.55v0l-5.4-3c-1.133-0.6-1.967-1.383-2.5-2.35-0.533-0.967-0.8-1.967-0.8-3v0c0-1.067 0.277-2.093 0.83-3.08 0.547-0.98 1.353-1.787 2.42-2.42 1.067-0.633 2.367-0.95 3.9-0.95zM712.7-3.55v0l0.6 1.65c-1.133 0.733-2.217 1.307-3.25 1.72-1.033 0.42-2.083 0.63-3.15 0.63v0c-1.433 0-2.657-0.35-3.67-1.05-1.02-0.7-1.53-2.017-1.53-3.95v0c0 0 0.01-0.41 0.03-1.23 0.013-0.813 0.02-1.813 0.02-3 0-1.18 0-2.303 0-3.37v0c0-1.667-0.007-3.193-0.02-4.58-0.02-1.38-0.047-2.57-0.08-3.57v0c-1 0.033-1.783 0.05-2.35 0.05-0.567 0-0.85 0-0.85 0v0l-0.15-0.55 1.15-1.95c0 0 0.177 0.023 0.53 0.07 0.347 0.053 0.87 0.097 1.57 0.13v0c0-0.667-0.017-1.36-0.05-2.08-0.033-0.713-0.067-1.313-0.1-1.8-0.033-0.48-0.05-0.72-0.05-0.72v0l3.3-2.95 0.95 0.45c0 0-0.007 0.357-0.02 1.07-0.02 0.72-0.037 1.613-0.05 2.68-0.02 1.067-0.03 2.167-0.03 3.3v0c2.267 0 4.06-0.01 5.38-0.03 1.313-0.013 1.97-0.02 1.97-0.02v0l0.25 0.6-1.8 2c0 0-0.45-0.033-1.35-0.1-0.9-0.067-2.383-0.117-4.45-0.15v0 6.7c0 2 0.01 3.65 0.03 4.95 0.013 1.3 0.053 2.633 0.12 4v0c0.067 0.833 0.35 1.417 0.85 1.75 0.5 0.333 1.1 0.5 1.8 0.5v0c0.767 0 1.56-0.133 2.38-0.4 0.813-0.267 1.487-0.517 2.02-0.75zM733.65-4.15v0l0.6 1.5c-1.033 0.833-2.24 1.557-3.62 2.17-1.387 0.62-2.913 0.93-4.58 0.93v0c-2.467 0-4.49-0.493-6.07-1.48-1.587-0.98-2.753-2.287-3.5-3.92-0.753-1.633-1.13-3.433-1.13-5.4v0c0-1.6 0.227-3.15 0.68-4.65 0.447-1.5 1.137-2.85 2.07-4.05 0.933-1.2 2.167-2.16 3.7-2.88 1.533-0.713 3.367-1.07 5.5-1.07v0c1.2 0 2.383 0.283 3.55 0.85 1.167 0.567 2.133 1.473 2.9 2.72 0.767 1.253 1.15 2.913 1.15 4.98v0l-1.7 2.05c-0.133-0.033-0.357-0.05-0.67-0.05-0.32 0-0.713 0-1.18 0v0c-0.833 0-1.817 0.007-2.95 0.02-1.133 0.02-2.283 0.047-3.45 0.08-1.167 0.033-2.233 0.073-3.2 0.12-0.967 0.053-1.683 0.097-2.15 0.13v0 0.45c0 3.133 0.66 5.433 1.98 6.9 1.313 1.467 3.02 2.2 5.12 2.2v0c1.233 0 2.4-0.133 3.5-0.4 1.1-0.267 2.25-0.667 3.45-1.2zM730.4-16v0c0-1.133-0.223-2.027-0.67-2.68-0.453-0.647-1.003-1.12-1.65-1.42-0.653-0.3-1.28-0.45-1.88-0.45v0c-1.633 0-3 0.64-4.1 1.92-1.1 1.287-1.833 2.78-2.2 4.48v0l10.35-0.4c0.1-0.5 0.15-0.983 0.15-1.45zM777.5-1.3v0l-0.15 1.45c-0.8-0.067-1.683-0.107-2.65-0.12-0.967-0.02-1.883-0.03-2.75-0.03v0c-0.833 0-1.773 0.01-2.82 0.03-1.053 0.013-1.98 0.053-2.78 0.12v0l0.15-1.45c0.367-0.033 0.783-0.1 1.25-0.2 0.467-0.1 0.893-0.233 1.28-0.4 0.38-0.167 0.587-0.333 0.62-0.5v0c0 0 0.033-0.25 0.1-0.75 0.067-0.5 0.133-1.4 0.2-2.7 0.067-1.3 0.1-3.167 0.1-5.6v0-5.25c0-1.233-0.357-2.077-1.07-2.53-0.72-0.447-1.613-0.67-2.68-0.67v0c-1.167 0-2.4 0.2-3.7 0.6-1.3 0.4-2.367 0.767-3.2 1.1v0 6.75c0 2.433 0.043 4.3 0.13 5.6 0.08 1.3 0.163 2.2 0.25 2.7 0.08 0.5 0.12 0.75 0.12 0.75v0c0.033 0.167 0.243 0.333 0.63 0.5 0.38 0.167 0.82 0.3 1.32 0.4 0.5 0.1 0.917 0.167 1.25 0.2v0l-0.15 1.45c-0.8-0.067-1.683-0.107-2.65-0.12-0.967-0.02-1.883-0.03-2.75-0.03v0c-0.833 0-1.773 0.01-2.82 0.03-1.053 0.013-1.98 0.053-2.78 0.12v0l0.15-1.45c0.367-0.033 0.783-0.1 1.25-0.2 0.467-0.1 0.893-0.233 1.28-0.4 0.38-0.167 0.587-0.333 0.62-0.5v0c0 0 0.033-0.25 0.1-0.75 0.067-0.5 0.133-1.4 0.2-2.7 0.067-1.3 0.1-3.167 0.1-5.6v0-5.25c0-1.233-0.357-2.077-1.07-2.53-0.72-0.447-1.613-0.67-2.68-0.67v0c-0.767 0-1.59 0.107-2.47 0.32-0.887 0.22-1.713 0.463-2.48 0.73-0.767 0.267-1.4 0.517-1.9 0.75v0 6.65c0 2.433 0.05 4.3 0.15 5.6 0.1 1.3 0.193 2.2 0.28 2.7 0.08 0.5 0.12 0.75 0.12 0.75v0c0.033 0.167 0.243 0.333 0.63 0.5 0.38 0.167 0.82 0.3 1.32 0.4 0.5 0.1 0.917 0.167 1.25 0.2v0l-0.15 1.45c-0.8-0.067-1.683-0.107-2.65-0.12-0.967-0.02-1.883-0.03-2.75-0.03v0c-0.833 0-1.773 0.01-2.82 0.03-1.053 0.013-1.98 0.053-2.78 0.12v0l0.15-1.45c0.367-0.033 0.783-0.1 1.25-0.2 0.467-0.1 0.893-0.233 1.28-0.4 0.38-0.167 0.587-0.333 0.62-0.5v0c0 0 0.033-0.25 0.1-0.75 0.067-0.5 0.127-1.4 0.18-2.7 0.047-1.3 0.07-3.167 0.07-5.6v0c0-2.433-0.033-4.243-0.1-5.43-0.067-1.18-0.133-1.963-0.2-2.35-0.067-0.38-0.1-0.57-0.1-0.57v0l-3.2-0.95-0.1-1.3c0.6 0 1.31-0.043 2.13-0.13 0.813-0.08 1.62-0.197 2.42-0.35 0.8-0.147 1.483-0.287 2.05-0.42v0l0.95 0.45c0 0-0.007 0.257-0.02 0.77-0.02 0.52-0.03 1.063-0.03 1.63v0c0.667-0.4 1.517-0.827 2.55-1.28 1.033-0.447 2.133-0.83 3.3-1.15 1.167-0.313 2.283-0.47 3.35-0.47v0c1.133 0 2.143 0.217 3.03 0.65 0.88 0.433 1.487 1.183 1.82 2.25v0c0.667-0.4 1.543-0.827 2.63-1.28 1.08-0.447 2.23-0.83 3.45-1.15 1.213-0.313 2.37-0.47 3.47-0.47v0c1.433 0 2.643 0.34 3.63 1.02 0.98 0.687 1.47 1.93 1.47 3.73v0 6.8c0 2.433 0.043 4.3 0.13 5.6 0.08 1.3 0.163 2.2 0.25 2.7 0.08 0.5 0.12 0.75 0.12 0.75v0c0.033 0.167 0.243 0.333 0.63 0.5 0.38 0.167 0.82 0.3 1.32 0.4 0.5 0.1 0.917 0.167 1.25 0.2z" fill="#ffffff" fill-rule="nonzero" stroke="none" stroke-width="1" stroke-linecap="butt" stroke-linejoin="miter" stroke-miterlimit="10" stroke-dasharray="" stroke-dashoffset="0" font-family="none" font-weight="none" font-size="none" text-anchor="none" style="mix-blend-mode: normal" data-fill-palette-color="secondary" id="text-1"></path></g></g><g transform="matrix(1,0,0,1,29.33176499999999,77.20766966562937)"><svg viewBox="0 0 316.416 86.0443201687413" height="86.0443201687413" width="316.416"><g><svg viewBox="0 0 488.5813691612897 132.86196575582775" height="86.0443201687413" width="316.416"><g transform="matrix(1,0,0,1,172.16536916128965,18.3622543121296)"><svg viewBox="0 0 316.416 96.13745713156855" height="96.13745713156855" width="316.416"><g id="textblocktransform"><svg viewBox="0 0 316.416 96.13745713156855" height="96.13745713156855" width="316.416" id="textblock"><g><svg viewBox="0 0 316.416 96.13745713156855" height="96.13745713156855" width="316.416"><g transform="matrix(1,0,0,1,0,0)"><svg width="316.416" viewBox="3.08 -37.55 124.79 37.55" height="96.13745713156855" data-palette-color="#ffffff"><g class="wordmark-text-0" data-fill-palette-color="primary" id="text-0"><path d="M9.42-37.55L9.42-31.81 3.08-31.81 3.08-37.55 9.42-37.55ZM9.42-26.39L9.42 0 3.08 0 3.08-26.39 9.42-26.39ZM47.85-35.01L47.85-28.66 33.86-28.66 33.86 0 27.51 0 27.51-28.66 13.5-28.66 13.5-35.01 47.85-35.01ZM86.86-31.81L86.86 0 80.51 0 80.51-8.59 58.2-8.59 58.2 0 51.85 0 51.85-17.5Q51.85-21.34 53.17-24.56 54.49-27.78 56.83-30.1 59.17-32.42 62.37-33.72 65.57-35.01 69.36-35.01L69.36-35.01 83.66-35.01Q84.32-35.01 84.91-34.77 85.49-34.52 85.93-34.08 86.37-33.64 86.62-33.06 86.86-32.47 86.86-31.81L86.86-31.81ZM58.2-17.5L58.2-14.94 80.51-14.94 80.51-28.66 69.36-28.66Q69.06-28.66 68.12-28.58 67.18-28.49 65.95-28.15 64.72-27.81 63.35-27.1 61.98-26.39 60.83-25.15 59.69-23.9 58.94-22.03 58.2-20.17 58.2-17.5L58.2-17.5ZM127.87-10.3L127.87-10.3Q127.87-8.42 127.4-6.92 126.92-5.42 126.14-4.27 125.36-3.13 124.31-2.32 123.26-1.51 122.14-1 121.01-0.49 119.85-0.24 118.69 0 117.67 0L117.67 0 93.18 0 93.18-6.35 117.67-6.35Q119.5-6.35 120.51-7.42 121.53-8.5 121.53-10.3L121.53-10.3Q121.53-11.18 121.26-11.91 120.99-12.65 120.49-13.18 119.99-13.72 119.27-14.01 118.55-14.31 117.67-14.31L117.67-14.31 103.07-14.31Q101.53-14.31 99.75-14.86 97.97-15.41 96.44-16.63 94.91-17.85 93.9-19.82 92.89-21.8 92.89-24.66L92.89-24.66Q92.89-27.51 93.9-29.48 94.91-31.45 96.44-32.68 97.97-33.91 99.75-34.46 101.53-35.01 103.07-35.01L103.07-35.01 124.68-35.01 124.68-28.66 103.07-28.66Q101.26-28.66 100.25-27.56 99.24-26.46 99.24-24.66L99.24-24.66Q99.24-22.83 100.25-21.77 101.26-20.7 103.07-20.7L103.07-20.7 117.67-20.7 117.72-20.7Q118.74-20.68 119.89-20.42 121.04-20.17 122.17-19.63 123.31-19.09 124.33-18.27 125.36-17.46 126.15-16.31 126.95-15.16 127.41-13.67 127.87-12.18 127.87-10.3Z" fill="#ffffff" data-fill-palette-color="primary"></path></g></svg></g></svg></g></svg></g></svg></g><g><svg viewBox="0 0 149.46962283149747 132.86196575582775" height="132.86196575582775" width="149.46962283149747"><g><svg xmlns="http://www.w3.org/2000/svg" xmlns:xlink="http://www.w3.org/1999/xlink" viewBox="5.000011999983205 9.99999099999207 89.99996800001674 80.00001900000792" version="1.1" xml:space="preserve" style="" x="0" y="0" fill-rule="evenodd" clip-rule="evenodd" stroke-linejoin="round" stroke-miterlimit="1.41421" height="132.86196575582775" width="149.46962283149747" class="icon-icon-0" data-fill-palette-color="accent" id="icon-0"><g fill="#ffffff" data-fill-palette-color="accent"><path d="M7 61l73 0 0-49-73 0 0 49ZM82 61c0 0.53-0.211 1.039-0.586 1.414-0.375 0.375-0.884 0.586-1.414 0.586-10.812 0-62.188 0-73 0-0.53 0-1.039-0.211-1.414-0.586-0.375-0.375-0.586-0.884-0.586-1.414 0-8.38 0-40.62 0-49 0-0.53 0.211-1.039 0.586-1.414 0.375-0.375 0.884-0.586 1.414-0.586 10.812 0 62.188 0 73 0 0.53 0 1.039 0.211 1.414 0.586 0.375 0.375 0.586 0.884 0.586 1.414 0 8.38 0 40.62 0 49Z" fill="#ffffff" fill-rule="nonzero" data-fill-palette-color="accent"></path><path d="M27 19l51 0 0-5-51 0 0 5ZM26 20l0-7 53 0 0 7-53 0Z" fill="#ffffff" fill-rule="nonzero" data-fill-palette-color="accent"></path><path d="M9 59l69 0 0-37-69 0 0 37ZM8 60l0-39 71 0 0 39-71 0Z" fill="#ffffff" fill-rule="nonzero" data-fill-palette-color="accent"></path><path d="M23 16.5l-5 2.5 0-5 5 2.5Z" fill="#ffffff" data-fill-palette-color="accent"></path><path d="M10 16.5l5 2.5 0-5-5 2.5Z" fill="#ffffff" data-fill-palette-color="accent"></path><path d="M46 43.038l0 8.577c0 0.765-0.62 1.385-1.385 1.385l-2.23 0c-0.765 0-1.385-0.62-1.385-1.385l0-8.577c-0.956-0.246-2-1.113-2-2.146l0-4.677c0-1.224 0.992-2.215 2.215-2.215l4.57 0c1.224 0 2.215 0.992 2.215 2.215l0 4.677c0 1.032-1.044 1.9-2 2.146Z" fill="#ffffff" data-fill-palette-color="accent"></path><path d="M37.974 68.499c-0.089-0.009-0.17-0.031-0.246-0.08-0.18-0.117-0.266-0.342-0.211-0.548 0.023-0.087 0.07-0.158 0.129-0.225l14-14c0.035-0.031 0.042-0.04 0.082-0.065 0.088-0.057 0.194-0.085 0.298-0.08 0.252 0.013 0.46 0.221 0.473 0.473 0.003 0.052-0.003 0.105-0.016 0.155-0.023 0.087-0.07 0.158-0.129 0.225l-14 14c-0.053 0.048-0.107 0.087-0.175 0.113-0.044 0.017-0.056 0.017-0.101 0.027-0.052 0.006-0.052 0.005-0.104 0.005Z" fill="#ffffff" fill-rule="nonzero" data-fill-palette-color="accent"></path><path d="M34 43.038l0 8.577c0 0.765-0.62 1.385-1.385 1.385l-2.23 0c-0.765 0-1.385-0.62-1.385-1.385l0-8.577c-0.956-0.246-2-1.113-2-2.146l0-4.677c0-1.224 0.992-2.215 2.215-2.215l4.57 0c1.224 0 2.215 0.992 2.215 2.215l0 4.677c0 1.032-1.044 1.9-2 2.146Z" fill="#ffffff" data-fill-palette-color="accent"></path><path d="M22 43.038l0 8.577c0 0.765-0.62 1.385-1.385 1.385l-2.23 0c-0.765 0-1.385-0.62-1.385-1.385l0-8.577c-0.956-0.246-2-1.113-2-2.146l0-4.677c0-1.224 0.992-2.215 2.215-2.215l4.57 0c1.224 0 2.215 0.992 2.215 2.215l0 4.677c0 1.032-1.044 1.9-2 2.146Z" fill="#ffffff" data-fill-palette-color="accent"></path><circle cx="43.5" cy="30.5" r="2.5" fill="#ffffff" data-fill-palette-color="accent"></circle><circle cx="31.5" cy="30.5" r="2.5" fill="#ffffff" data-fill-palette-color="accent"></circle><circle cx="19.5" cy="30.5" r="2.5" fill="#ffffff" data-fill-palette-color="accent"></circle><path d="M93 43.038l0 8.577c0 0.765-0.62 1.385-1.385 1.385l-2.23 0c-0.765 0-1.385-0.62-1.385-1.385l0-8.577c-0.956-0.246-2-1.113-2-2.146l0-4.677c0-1.224 0.992-2.215 2.215-2.215l4.57 0c1.224 0 2.215 0.992 2.215 2.215l0 4.677c0 1.032-1.044 1.9-2 2.146Z" fill="#ffffff" data-fill-palette-color="accent"></path><path d="M36 80.038l0 8.577c0 0.765-0.62 1.385-1.385 1.385l-2.23 0c-0.765 0-1.385-0.62-1.385-1.385l0-8.577c-0.956-0.246-2-1.113-2-2.146l0-4.677c0-1.224 0.992-2.215 2.215-2.215l4.57 0c1.224 0 2.215 0.992 2.215 2.215l0 4.677c0 1.032-1.044 1.9-2 2.146Z" fill="#ffffff" data-fill-palette-color="accent"></path><circle cx="90.5" cy="30.5" r="2.5" fill="#ffffff" data-fill-palette-color="accent"></circle><circle cx="33.5" cy="67.5" r="2.5" fill="#ffffff" data-fill-palette-color="accent"></circle><path d="M66.472 52.988c0-0.128 0.023-0.254 0.071-0.372 0.095-0.238 0.283-0.433 0.516-0.539 0.13-0.059 0.27-0.087 0.412-0.089 0.152-0.002 0.304-0.006 0.452 0.033 0.304 0.079 0.559 0.303 0.676 0.595 0.048 0.119 0.071 0.244 0.071 0.371-0.732 0.028-1.465 0.001-2.198 0.001ZM65.554 52.71c-0.239-0.183-0.417-0.437-0.499-0.727-0.032-0.112-0.048-0.227-0.052-0.343l0-0.036 0-0.941 0.005-0.001c0.115 0.005 0.224 0.02 0.333 0.059 0.268 0.096 0.487 0.308 0.592 0.573 0.043 0.107 0.061 0.216 0.07 0.33 0.002 0.044 0.012 0.09 0.018 0.133 0.005 0.086 0.007 0.168-0.006 0.254-0.03 0.196-0.119 0.382-0.253 0.528-0.051 0.056-0.067 0.066-0.125 0.114-0.047 0.033-0.045 0.035-0.083 0.057ZM69.555 52.623l-0.011-0.006-0.074-0.041c-0.062-0.042-0.079-0.051-0.136-0.102-0.106-0.094-0.191-0.21-0.25-0.339-0.046-0.103-0.075-0.215-0.084-0.328-0.005-0.065 0-0.128 0.002-0.193 0.003-0.116 0.003-0.227 0.033-0.34 0.079-0.304 0.303-0.559 0.595-0.676 0.119-0.048 0.245-0.071 0.373-0.071 0 0.383 0.013 0.765-0.002 1.148-0.02 0.31-0.135 0.597-0.336 0.835-0.035 0.039-0.071 0.077-0.11 0.113ZM65.003 49.662l0-2.199 0.042 0c0.075 0.006 0.094 0.006 0.168 0.022 0.111 0.024 0.217 0.067 0.314 0.126 0.243 0.15 0.413 0.401 0.461 0.682 0.021 0.121 0.016 0.247 0.015 0.369-0.003 0.2-0.059 0.394-0.172 0.56-0.111 0.165-0.271 0.294-0.455 0.368-0.08 0.032-0.161 0.049-0.246 0.064-0.063 0.005-0.063 0.007-0.127 0.008ZM69.96 49.525c-0.086-0.007-0.168-0.018-0.25-0.043-0.245-0.075-0.455-0.245-0.58-0.468-0.084-0.15-0.125-0.317-0.127-0.488-0.002-0.183-0.004-0.359 0.057-0.533 0.105-0.296 0.349-0.531 0.65-0.623 0.095-0.029 0.193-0.043 0.293-0.043l0 2.198c-0.014 0-0.028 0-0.043 0ZM65.003 46.462l0-2.199 0.042 0c0.075 0.006 0.094 0.006 0.168 0.022 0.111 0.024 0.217 0.067 0.314 0.126 0.243 0.15 0.413 0.401 0.461 0.682 0.021 0.121 0.016 0.247 0.015 0.369-0.003 0.2-0.059 0.394-0.172 0.56-0.111 0.165-0.271 0.294-0.455 0.368-0.08 0.032-0.161 0.049-0.246 0.064-0.063 0.005-0.063 0.007-0.127 0.008ZM69.96 46.325c-0.086-0.007-0.168-0.018-0.25-0.043-0.245-0.075-0.455-0.245-0.58-0.468-0.084-0.15-0.125-0.317-0.127-0.488-0.002-0.183-0.004-0.359 0.057-0.533 0.105-0.296 0.349-0.531 0.65-0.623 0.095-0.029 0.193-0.043 0.293-0.043l0 2.198c-0.014 0-0.028 0-0.043 0ZM70.003 43.655c-0.111-0.076-0.207-0.167-0.283-0.279-0.063-0.094-0.11-0.199-0.137-0.309-0.085-0.333 0.011-0.696 0.251-0.942 0.059-0.061 0.126-0.114 0.198-0.159 0.052-0.032 0.108-0.057 0.162-0.086 0.061-0.033 0.121-0.067 0.187-0.091 0.106-0.039 0.219-0.06 0.332-0.062 0.227-0.003 0.453 0.072 0.632 0.212 0.059 0.047 0.111 0.099 0.158 0.157-0.045 0.053-0.093 0.103-0.142 0.152-0.368 0.358-0.819 0.624-1.313 0.766l-0.045 0.012c0 0.21 0 0.419 0 0.629ZM65.003 43.447l0-0.421c-0.076-0.02-0.151-0.043-0.225-0.068-0.542-0.197-1.038-0.537-1.387-1l0.028-0.029c0.063-0.058 0.126-0.112 0.2-0.156 0.171-0.101 0.371-0.149 0.57-0.136 0.141 0.009 0.28 0.048 0.405 0.114 0.044 0.023 0.085 0.051 0.128 0.077 0.094 0.057 0.187 0.111 0.267 0.188 0.248 0.238 0.358 0.596 0.286 0.933-0.03 0.142-0.093 0.265-0.173 0.384-0.048 0.059-0.047 0.059-0.099 0.113ZM71.96 41.226c-0.086-0.007-0.168-0.018-0.25-0.043-0.245-0.075-0.455-0.245-0.58-0.468-0.084-0.15-0.125-0.317-0.127-0.488-0.002-0.183-0.004-0.359 0.057-0.533 0.105-0.296 0.349-0.531 0.65-0.623 0.095-0.029 0.193-0.043 0.293-0.043 0 0.634 0.009 1.267-0.001 1.901-0.002 0.048-0.006 0.095-0.011 0.143-0.006 0.042-0.007 0.052-0.015 0.094-0.003 0.016-0.006 0.031-0.009 0.047-0.002 0.01 0.001 0.013-0.007 0.013ZM63.012 41.05c-0.006-0.056-0.009-0.112-0.009-0.169l0-2.03c0.1 0 0.198 0.014 0.293 0.043 0.301 0.092 0.545 0.327 0.65 0.623 0.061 0.174 0.059 0.351 0.057 0.534-0.002 0.171-0.043 0.338-0.127 0.487-0.111 0.198-0.289 0.355-0.5 0.44-0.08 0.032-0.161 0.049-0.246 0.064-0.059 0.005-0.058 0.007-0.118 0.008ZM71.96 38.026c-0.086-0.007-0.168-0.018-0.25-0.043-0.19-0.058-0.36-0.173-0.485-0.328-0.144-0.178-0.219-0.4-0.222-0.628-0.002-0.122-0.006-0.248 0.014-0.369 0.048-0.281 0.218-0.533 0.461-0.682 0.096-0.059 0.203-0.102 0.314-0.126 0.074-0.016 0.093-0.015 0.168-0.022l0.011 0c0.021 0.125 0.03 0.249 0.032 0.376l0 1.822c-0.014 0-0.028 0-0.043 0ZM63.003 37.85c0-0.568-0.006-1.135 0-1.703 0.002-0.057 0.006-0.113 0.011-0.17 0.013-0.109 0.031-0.217 0.058-0.323l0.058 0.005c0.085 0.015 0.166 0.032 0.246 0.064 0.184 0.074 0.344 0.203 0.455 0.368 0.112 0.166 0.169 0.36 0.172 0.56 0.002 0.122 0.006 0.248-0.015 0.369-0.043 0.252-0.185 0.483-0.391 0.635-0.091 0.067-0.194 0.119-0.301 0.152-0.072 0.022-0.092 0.023-0.166 0.035-0.063 0.005-0.063 0.007-0.127 0.008ZM64.305 35.179c-0.086-0.005-0.168-0.013-0.251-0.035-0.216-0.059-0.397-0.188-0.534-0.363 0.042-0.05 0.086-0.097 0.132-0.144 0.102-0.099 0.21-0.191 0.327-0.27 0.27-0.182 0.579-0.304 0.902-0.353 0.205-0.031 0.409-0.026 0.615-0.026l0.007 0.077c0 0.115-0.009 0.225-0.043 0.335-0.058 0.19-0.174 0.36-0.329 0.485-0.066 0.053-0.139 0.098-0.216 0.133-0.047 0.021-0.095 0.036-0.142 0.054-0.045 0.018-0.087 0.038-0.134 0.054-0.072 0.024-0.091 0.026-0.164 0.041-0.084 0.01-0.084 0.01-0.17 0.012ZM70.846 35.257c-0.086-0.004-0.168-0.011-0.252-0.032-0.084-0.022-0.159-0.056-0.236-0.095l0.008 0.005c-0.058-0.031-0.119-0.055-0.177-0.086-0.05-0.027-0.097-0.058-0.142-0.094-0.224-0.176-0.364-0.446-0.379-0.731-0.004-0.08 0.003-0.157 0.015-0.236 0.073 0 0.145 0 0.218 0.003 0.167 0.011 0.331 0.035 0.493 0.081 0.327 0.093 0.631 0.263 0.883 0.492 0.105 0.096 0.199 0.202 0.286 0.314l0.031 0.043c-0.051 0.053-0.062 0.068-0.12 0.114-0.088 0.071-0.188 0.127-0.295 0.165-0.071 0.025-0.09 0.027-0.164 0.043-0.084 0.011-0.084 0.011-0.169 0.014ZM67.491 34.988c-0.144-0.006-0.28-0.029-0.412-0.088-0.355-0.161-0.587-0.522-0.587-0.912l2.198 0c0 0.359-0.197 0.698-0.511 0.873-0.127 0.071-0.26 0.105-0.403 0.124-0.143 0.006-0.142 0.004-0.285 0.003Z" fill="#ffffff" fill-rule="nonzero" data-fill-palette-color="accent"></path><path d="M54.465 52.983c0-0.128 0.023-0.254 0.071-0.373 0.095-0.238 0.283-0.433 0.516-0.538 0.13-0.059 0.27-0.087 0.412-0.089 0.152-0.002 0.304-0.006 0.452 0.032 0.304 0.079 0.559 0.303 0.676 0.595 0.048 0.119 0.071 0.244 0.071 0.372-0.732 0.028-1.465 0.001-2.198 0.001ZM53.548 52.704c-0.239-0.183-0.417-0.437-0.499-0.727-0.032-0.112-0.048-0.227-0.052-0.343l-0.001-0.036 0-0.941 0.006 0c0.115 0.005 0.224 0.02 0.333 0.059 0.268 0.096 0.487 0.308 0.592 0.572 0.043 0.107 0.061 0.216 0.07 0.331 0.002 0.044 0.012 0.09 0.018 0.132 0.005 0.086 0.007 0.168-0.006 0.254-0.03 0.196-0.119 0.382-0.254 0.528-0.051 0.056-0.067 0.066-0.125 0.115-0.047 0.033-0.045 0.035-0.082 0.056ZM57.549 52.617l-0.012-0.005-0.074-0.042c-0.062-0.042-0.079-0.051-0.136-0.101-0.106-0.094-0.191-0.21-0.249-0.34-0.046-0.103-0.075-0.215-0.084-0.327-0.005-0.065 0-0.128 0.002-0.193 0.003-0.116 0.003-0.227 0.032-0.34 0.079-0.304 0.303-0.559 0.595-0.676 0.119-0.048 0.245-0.071 0.373-0.071 0 0.383 0.013 0.765-0.002 1.147-0.02 0.31-0.135 0.597-0.336 0.835-0.035 0.039-0.071 0.077-0.109 0.113ZM52.996 49.656l0-2.198 0.043 0c0.075 0.006 0.094 0.006 0.168 0.021 0.111 0.024 0.217 0.067 0.313 0.126 0.243 0.15 0.413 0.401 0.462 0.683 0.021 0.121 0.016 0.247 0.014 0.369-0.003 0.2-0.059 0.394-0.171 0.56-0.111 0.165-0.271 0.294-0.456 0.368-0.08 0.032-0.161 0.049-0.246 0.064-0.063 0.005-0.063 0.007-0.127 0.007ZM57.954 49.52c-0.086-0.007-0.168-0.018-0.251-0.043-0.245-0.075-0.455-0.245-0.58-0.469-0.084-0.15-0.125-0.317-0.127-0.487-0.002-0.183-0.004-0.359 0.057-0.533 0.105-0.296 0.349-0.531 0.65-0.623 0.095-0.029 0.193-0.043 0.293-0.043l0 2.198c-0.014 0-0.028 0-0.042 0ZM52.996 46.456l0-2.198 0.043 0c0.075 0.006 0.094 0.006 0.168 0.021 0.111 0.024 0.217 0.067 0.313 0.126 0.243 0.15 0.413 0.401 0.462 0.683 0.021 0.121 0.016 0.247 0.014 0.369-0.003 0.2-0.059 0.394-0.171 0.56-0.111 0.165-0.271 0.294-0.456 0.368-0.08 0.032-0.161 0.049-0.246 0.064-0.063 0.005-0.063 0.007-0.127 0.007ZM57.954 46.32c-0.086-0.007-0.168-0.018-0.251-0.043-0.245-0.075-0.455-0.245-0.58-0.469-0.084-0.15-0.125-0.317-0.127-0.487-0.002-0.183-0.004-0.359 0.057-0.533 0.105-0.296 0.349-0.531 0.65-0.623 0.095-0.029 0.193-0.043 0.293-0.043l0 2.198c-0.014 0-0.028 0-0.042 0ZM57.996 43.65c-0.111-0.076-0.207-0.167-0.282-0.279-0.063-0.094-0.11-0.199-0.138-0.309-0.085-0.333 0.011-0.696 0.251-0.943 0.059-0.061 0.126-0.114 0.198-0.158 0.052-0.032 0.108-0.057 0.163-0.087 0.061-0.033 0.121-0.067 0.186-0.091 0.106-0.039 0.219-0.06 0.332-0.062 0.227-0.003 0.453 0.072 0.632 0.213 0.059 0.047 0.111 0.099 0.159 0.157-0.045 0.053-0.093 0.103-0.143 0.152-0.368 0.358-0.819 0.624-1.313 0.766l-0.045 0.012c0 0.21 0 0.419 0 0.629ZM52.996 43.441l0-0.42c-0.076-0.02-0.151-0.043-0.225-0.069-0.542-0.197-1.038-0.537-1.386-0.999l0.027-0.03c0.063-0.058 0.126-0.112 0.201-0.156 0.171-0.101 0.371-0.149 0.569-0.136 0.141 0.009 0.28 0.048 0.406 0.114 0.044 0.023 0.085 0.051 0.127 0.077 0.094 0.057 0.187 0.111 0.268 0.188 0.248 0.238 0.358 0.596 0.286 0.933-0.03 0.142-0.093 0.265-0.174 0.384-0.048 0.059-0.047 0.059-0.099 0.114ZM59.954 41.221c-0.086-0.007-0.168-0.018-0.251-0.043-0.245-0.075-0.455-0.245-0.58-0.469-0.084-0.15-0.125-0.317-0.127-0.487-0.002-0.183-0.004-0.359 0.057-0.534 0.105-0.296 0.349-0.531 0.65-0.623 0.095-0.029 0.193-0.043 0.293-0.043 0 0.634 0.009 1.267-0.001 1.901-0.002 0.048-0.006 0.095-0.011 0.144-0.006 0.042-0.007 0.052-0.014 0.094-0.003 0.016-0.006 0.031-0.01 0.046-0.002 0.01 0.001 0.013-0.006 0.014ZM51.006 41.044c-0.006-0.056-0.009-0.112-0.01-0.169l0-2.029c0.1 0 0.198 0.014 0.293 0.043 0.301 0.092 0.545 0.327 0.65 0.623 0.061 0.174 0.059 0.351 0.057 0.533-0.002 0.171-0.043 0.338-0.127 0.488-0.111 0.198-0.289 0.355-0.5 0.44-0.08 0.032-0.161 0.049-0.246 0.064-0.059 0.005-0.058 0.007-0.117 0.007ZM59.954 38.021c-0.086-0.007-0.168-0.018-0.251-0.043-0.19-0.058-0.36-0.173-0.485-0.328-0.144-0.178-0.219-0.4-0.222-0.628-0.002-0.122-0.006-0.248 0.015-0.37 0.048-0.281 0.218-0.533 0.461-0.682 0.096-0.059 0.203-0.102 0.313-0.126 0.074-0.016 0.093-0.015 0.169-0.022l0.01 0c0.021 0.125 0.03 0.249 0.032 0.376l0 1.823c-0.014 0-0.028 0-0.042 0ZM50.996 37.844c0-0.568-0.006-1.135 0.001-1.703 0.002-0.057 0.006-0.113 0.011-0.169 0.013-0.109 0.031-0.217 0.057-0.324l0.058 0.005c0.085 0.015 0.166 0.032 0.246 0.064 0.184 0.074 0.344 0.203 0.456 0.368 0.112 0.166 0.169 0.36 0.171 0.56 0.002 0.122 0.006 0.248-0.014 0.369-0.043 0.252-0.185 0.483-0.391 0.635-0.091 0.067-0.194 0.119-0.302 0.152-0.072 0.022-0.092 0.023-0.166 0.036-0.063 0.005-0.063 0.007-0.127 0.007ZM52.299 35.173c-0.086-0.005-0.168-0.013-0.252-0.035-0.216-0.059-0.397-0.188-0.534-0.362 0.042-0.05 0.086-0.097 0.132-0.144 0.102-0.099 0.21-0.191 0.328-0.271 0.27-0.182 0.579-0.304 0.901-0.353 0.205-0.031 0.409-0.026 0.616-0.025l0.006 0.076c0 0.115-0.009 0.225-0.043 0.335-0.058 0.19-0.174 0.36-0.328 0.485-0.066 0.053-0.139 0.098-0.217 0.133-0.047 0.021-0.095 0.036-0.142 0.055-0.045 0.018-0.087 0.038-0.133 0.053-0.072 0.024-0.091 0.026-0.165 0.041-0.084 0.01-0.084 0.01-0.169 0.013ZM58.839 35.252c-0.086-0.004-0.168-0.011-0.252-0.033-0.084-0.022-0.159-0.056-0.236-0.094l0.008 0.004c-0.058-0.031-0.119-0.055-0.177-0.086-0.05-0.027-0.097-0.058-0.141-0.093-0.224-0.176-0.364-0.446-0.38-0.731-0.004-0.08 0.003-0.157 0.016-0.236 0.073 0 0.145 0 0.218 0.003 0.167 0.011 0.331 0.035 0.492 0.081 0.327 0.093 0.631 0.263 0.883 0.491 0.105 0.096 0.199 0.202 0.286 0.315l0.031 0.042c-0.051 0.053-0.062 0.068-0.12 0.115-0.088 0.071-0.188 0.127-0.295 0.165-0.071 0.025-0.09 0.027-0.164 0.042-0.084 0.011-0.084 0.011-0.169 0.015ZM55.484 34.983c-0.144-0.006-0.28-0.029-0.412-0.089-0.355-0.161-0.587-0.522-0.587-0.911l2.198 0c0 0.359-0.197 0.698-0.511 0.873-0.127 0.071-0.26 0.105-0.403 0.123-0.143 0.006-0.142 0.004-0.285 0.004Z" fill="#ffffff" fill-rule="nonzero" data-fill-palette-color="accent"></path><path d="M67.503 32.988c-0.149-0.002-0.296-0.013-0.443-0.039-0.163-0.029-0.32-0.076-0.474-0.134l-0.056-0.023-0.048-0.021c0.01-0.041 0.021-0.081 0.034-0.121 0.032-0.083 0.07-0.162 0.122-0.235 0.127-0.182 0.315-0.318 0.527-0.383 0.071-0.022 0.143-0.034 0.217-0.041 0.053-0.003 0.107-0.002 0.16-0.003 0.047-0.001 0.094-0.004 0.141-0.004 0.104 0.005 0.205 0.021 0.303 0.055 0.224 0.078 0.416 0.236 0.535 0.441 0.045 0.077 0.077 0.159 0.102 0.244-0.049 0.024-0.098 0.047-0.147 0.068-0.232 0.095-0.469 0.155-0.718 0.183-0.085 0.008-0.17 0.012-0.255 0.013ZM69.396 32.121c-0.316-0.169-0.513-0.522-0.511-0.876 0-0.074 0.009-0.147 0.025-0.22 0.012-0.055 0.032-0.107 0.045-0.161 0.011-0.044 0.021-0.087 0.036-0.13 0.038-0.112 0.096-0.217 0.171-0.308 0.196-0.241 0.495-0.375 0.803-0.369 0.01 0.059 0.018 0.117 0.025 0.176 0.015 0.17 0.017 0.341 0 0.511-0.046 0.451-0.217 0.875-0.484 1.24-0.036 0.047-0.072 0.092-0.11 0.137ZM65.683 32.203c-0.359-0.385-0.594-0.872-0.66-1.396-0.027-0.212-0.024-0.425 0-0.637l0-0.005c0.297-0.026 0.6 0.098 0.803 0.315 0.081 0.087 0.143 0.187 0.191 0.296 0.031 0.078 0.049 0.15 0.076 0.228 0.001 0.002-0.003-0.009-0.002-0.007 0.005 0.014 0.01 0.028 0.015 0.042 0.03 0.099 0.049 0.2 0.05 0.304 0.002 0.222-0.071 0.442-0.206 0.618-0.054 0.071-0.118 0.131-0.188 0.187-0.026 0.019-0.052 0.038-0.079 0.054ZM65.992 29.489c-0.059-0.002-0.118-0.006-0.176-0.018-0.177-0.033-0.335-0.115-0.472-0.229l-0.006-0.005c0.276-0.467 0.69-0.84 1.192-1.052 0.171-0.072 0.348-0.123 0.53-0.158l0.041-0.006c0.11 0.276 0.078 0.602-0.07 0.856-0.06 0.103-0.138 0.191-0.227 0.269-0.064 0.05-0.132 0.093-0.198 0.14-0.002 0.001 0.006-0.005 0.004-0.004-0.012 0.009-0.024 0.017-0.035 0.027-0.151 0.101-0.314 0.159-0.494 0.177-0.044 0.003-0.044 0.003-0.089 0.003ZM68.927 29.425c-0.181-0.002-0.349-0.045-0.508-0.131-0.058-0.035-0.113-0.073-0.17-0.107-0.003-0.002 0.011 0.006 0.008 0.004-0.038-0.023-0.038-0.022-0.075-0.046-0.072-0.052-0.139-0.109-0.197-0.177-0.154-0.18-0.24-0.413-0.24-0.65 0-0.104 0.018-0.205 0.048-0.305l0.002-0.007c0.535 0.061 1.043 0.302 1.432 0.673 0.146 0.139 0.271 0.294 0.382 0.462l0.001 0.002c-0.148 0.149-0.345 0.237-0.55 0.271-0.044 0.006-0.088 0.009-0.133 0.011Z" fill="#ffffff" fill-rule="nonzero" data-fill-palette-color="accent"></path><path d="M55.496 32.983c-0.149-0.002-0.296-0.013-0.442-0.039-0.163-0.029-0.32-0.076-0.475-0.135l-0.056-0.023-0.048-0.021c0.01-0.041 0.021-0.081 0.035-0.12 0.032-0.083 0.07-0.162 0.121-0.236 0.127-0.182 0.315-0.318 0.527-0.383 0.071-0.022 0.143-0.034 0.217-0.041 0.053-0.003 0.107-0.002 0.16-0.003 0.047-0.001 0.094-0.004 0.141-0.004 0.104 0.005 0.205 0.021 0.304 0.056 0.224 0.078 0.416 0.236 0.535 0.44 0.045 0.077 0.077 0.159 0.102 0.244-0.049 0.024-0.098 0.047-0.148 0.068-0.232 0.095-0.469 0.155-0.717 0.184-0.085 0.008-0.17 0.012-0.256 0.013ZM57.389 32.116c-0.316-0.169-0.513-0.522-0.511-0.877 0-0.074 0.009-0.147 0.025-0.219 0.012-0.055 0.032-0.107 0.046-0.161 0.011-0.044 0.021-0.087 0.036-0.13 0.038-0.112 0.096-0.217 0.17-0.309 0.196-0.241 0.495-0.375 0.804-0.369 0.01 0.059 0.018 0.117 0.024 0.176 0.015 0.17 0.017 0.341 0 0.512-0.046 0.451-0.217 0.875-0.484 1.24-0.036 0.047-0.072 0.092-0.11 0.137ZM53.676 32.197c-0.359-0.385-0.594-0.872-0.66-1.396-0.027-0.212-0.024-0.425 0-0.637l0.001-0.005c0.297-0.026 0.6 0.098 0.802 0.315 0.081 0.087 0.143 0.187 0.191 0.296 0.031 0.078 0.049 0.15 0.077 0.229 0.001 0.002-0.003-0.009-0.003-0.007 0.005 0.014 0.01 0.028 0.015 0.041 0.03 0.099 0.049 0.2 0.051 0.305 0.002 0.222-0.071 0.442-0.207 0.618-0.054 0.071-0.118 0.131-0.187 0.187-0.026 0.019-0.052 0.038-0.08 0.054ZM53.986 29.483c-0.059-0.002-0.118-0.006-0.176-0.017-0.177-0.033-0.335-0.115-0.472-0.229l-0.006-0.006c0.276-0.467 0.69-0.84 1.191-1.052 0.171-0.072 0.348-0.123 0.531-0.157l0.041-0.007c0.11 0.276 0.078 0.602-0.07 0.857-0.06 0.103-0.138 0.191-0.228 0.268-0.064 0.05-0.132 0.093-0.198 0.14-0.002 0.001 0.006-0.005 0.005-0.003-0.012 0.009-0.024 0.017-0.036 0.026-0.151 0.101-0.314 0.159-0.494 0.177-0.044 0.003-0.044 0.003-0.088 0.003ZM56.921 29.419c-0.181-0.002-0.349-0.045-0.508-0.131-0.058-0.035-0.113-0.073-0.171-0.107-0.003-0.002 0.011 0.006 0.008 0.005-0.038-0.023-0.038-0.022-0.075-0.047-0.072-0.052-0.139-0.109-0.197-0.177-0.154-0.18-0.24-0.413-0.24-0.65 0-0.104 0.018-0.205 0.048-0.305l0.003-0.007c0.535 0.061 1.043 0.302 1.432 0.673 0.146 0.139 0.271 0.294 0.381 0.462l0.001 0.002c-0.148 0.149-0.345 0.237-0.55 0.272-0.044 0.006-0.088 0.009-0.132 0.01Z" fill="#ffffff" fill-rule="nonzero" data-fill-palette-color="accent"></path><path d="M74 41c-0.089-0.004-0.172-0.022-0.25-0.067-0.208-0.12-0.302-0.379-0.22-0.604 0.02-0.055 0.049-0.106 0.087-0.15 0.087-0.104 0.207-0.159 0.339-0.177 3.345-0.146 6.696-0.002 10.044-0.002 0.089 0.004 0.172 0.022 0.25 0.067 0.05 0.029 0.096 0.067 0.133 0.112 0.154 0.184 0.154 0.459 0 0.642-0.087 0.104-0.207 0.159-0.339 0.177-3.345 0.146-6.696 0.002-10.044 0.002Z" fill="#ffffff" fill-rule="nonzero" data-fill-palette-color="accent"></path></g></svg></g></svg></g></svg></g></svg></g></svg></g><defs></defs></svg><rect width="375.07953" height="240.45965950000001" fill="none" stroke="none" visibility="hidden"></rect></g></svg></g></svg>